<mxfile host="app.diagrams.net" agent="Mozilla/5.0 (Windows NT 10.0; Win64; x64) AppleWebKit/537.36 (KHTML, like Gecko) Chrome/135.0.0.0 Safari/537.36 Edg/135.0.0.0" version="26.2.14">
  <diagram name="Página-1" id="UklSCXslZiYHhd7SmcEi">
    <mxGraphModel dx="3187" dy="950" grid="1" gridSize="10" guides="1" tooltips="1" connect="1" arrows="1" fold="1" page="1" pageScale="1" pageWidth="827" pageHeight="1169" math="0" shadow="0">
      <root>
        <mxCell id="0" />
        <mxCell id="1" parent="0" />
        <mxCell id="bdEAc6ZdpRl-mZ2Yg-5d-89" value="" style="rounded=1;whiteSpace=wrap;html=1;" parent="1" vertex="1">
          <mxGeometry x="-720" y="930" width="2160" height="500" as="geometry" />
        </mxCell>
        <mxCell id="bdEAc6ZdpRl-mZ2Yg-5d-93" value="" style="rounded=1;whiteSpace=wrap;html=1;dashed=1;dashPattern=8 8;" parent="1" vertex="1">
          <mxGeometry x="310" y="1015" width="430" height="235" as="geometry" />
        </mxCell>
        <mxCell id="E_HUhhQDJXJuaxSUBeKh-64" style="edgeStyle=orthogonalEdgeStyle;rounded=0;orthogonalLoop=1;jettySize=auto;html=1;" edge="1" parent="1" source="bdEAc6ZdpRl-mZ2Yg-5d-187" target="E_HUhhQDJXJuaxSUBeKh-63">
          <mxGeometry relative="1" as="geometry" />
        </mxCell>
        <mxCell id="bdEAc6ZdpRl-mZ2Yg-5d-187" value="" style="rounded=1;whiteSpace=wrap;html=1;dashed=1;dashPattern=8 8;" parent="1" vertex="1">
          <mxGeometry x="450" y="1025" width="160" height="115" as="geometry" />
        </mxCell>
        <mxCell id="bdEAc6ZdpRl-mZ2Yg-5d-130" value="" style="rounded=1;whiteSpace=wrap;html=1;" parent="1" vertex="1">
          <mxGeometry x="-180" y="1540" width="1100" height="640" as="geometry" />
        </mxCell>
        <mxCell id="bdEAc6ZdpRl-mZ2Yg-5d-136" value="" style="rounded=1;whiteSpace=wrap;html=1;dashed=1;" parent="1" vertex="1">
          <mxGeometry x="650" y="1635" width="230" height="465" as="geometry" />
        </mxCell>
        <mxCell id="bdEAc6ZdpRl-mZ2Yg-5d-134" value="" style="rounded=1;whiteSpace=wrap;html=1;dashed=1;" parent="1" vertex="1">
          <mxGeometry x="290" y="1645" width="190" height="455" as="geometry" />
        </mxCell>
        <mxCell id="bdEAc6ZdpRl-mZ2Yg-5d-132" value="" style="rounded=1;whiteSpace=wrap;html=1;dashed=1;" parent="1" vertex="1">
          <mxGeometry x="-90" y="1650" width="230" height="460" as="geometry" />
        </mxCell>
        <mxCell id="bdEAc6ZdpRl-mZ2Yg-5d-19" value="" style="rounded=0;whiteSpace=wrap;html=1;" parent="1" vertex="1">
          <mxGeometry x="120" y="20" width="570" height="230" as="geometry" />
        </mxCell>
        <mxCell id="bdEAc6ZdpRl-mZ2Yg-5d-9" style="edgeStyle=orthogonalEdgeStyle;rounded=0;orthogonalLoop=1;jettySize=auto;html=1;" parent="1" source="bdEAc6ZdpRl-mZ2Yg-5d-1" target="bdEAc6ZdpRl-mZ2Yg-5d-4" edge="1">
          <mxGeometry relative="1" as="geometry" />
        </mxCell>
        <mxCell id="bdEAc6ZdpRl-mZ2Yg-5d-10" style="edgeStyle=orthogonalEdgeStyle;rounded=0;orthogonalLoop=1;jettySize=auto;html=1;entryX=0;entryY=0.5;entryDx=0;entryDy=0;" parent="1" source="bdEAc6ZdpRl-mZ2Yg-5d-1" target="bdEAc6ZdpRl-mZ2Yg-5d-5" edge="1">
          <mxGeometry relative="1" as="geometry" />
        </mxCell>
        <mxCell id="bdEAc6ZdpRl-mZ2Yg-5d-1" value="Clientes" style="shape=umlActor;verticalLabelPosition=bottom;verticalAlign=top;html=1;outlineConnect=0;" parent="1" vertex="1">
          <mxGeometry x="160" y="110" width="30" height="60" as="geometry" />
        </mxCell>
        <mxCell id="bdEAc6ZdpRl-mZ2Yg-5d-3" value="&lt;font style=&quot;font-size: 18px;&quot;&gt;&lt;b&gt;Diagrama C1 - Contexto - Sistema de Banca por Internet&lt;/b&gt;&lt;/font&gt;" style="text;html=1;align=center;verticalAlign=middle;whiteSpace=wrap;rounded=0;" parent="1" vertex="1">
          <mxGeometry x="130" y="20" width="550" height="30" as="geometry" />
        </mxCell>
        <mxCell id="bdEAc6ZdpRl-mZ2Yg-5d-12" style="edgeStyle=orthogonalEdgeStyle;rounded=0;orthogonalLoop=1;jettySize=auto;html=1;entryX=0;entryY=0.5;entryDx=0;entryDy=0;" parent="1" source="bdEAc6ZdpRl-mZ2Yg-5d-4" target="bdEAc6ZdpRl-mZ2Yg-5d-7" edge="1">
          <mxGeometry relative="1" as="geometry" />
        </mxCell>
        <mxCell id="bdEAc6ZdpRl-mZ2Yg-5d-4" value="Sistema Canal Banca Móvil" style="whiteSpace=wrap;html=1;aspect=fixed;" parent="1" vertex="1">
          <mxGeometry x="250" y="60" width="80" height="80" as="geometry" />
        </mxCell>
        <mxCell id="bdEAc6ZdpRl-mZ2Yg-5d-13" style="edgeStyle=orthogonalEdgeStyle;rounded=0;orthogonalLoop=1;jettySize=auto;html=1;entryX=0;entryY=0.75;entryDx=0;entryDy=0;" parent="1" source="bdEAc6ZdpRl-mZ2Yg-5d-5" target="bdEAc6ZdpRl-mZ2Yg-5d-7" edge="1">
          <mxGeometry relative="1" as="geometry" />
        </mxCell>
        <mxCell id="bdEAc6ZdpRl-mZ2Yg-5d-5" value="Sistema Canal Banca Web" style="whiteSpace=wrap;html=1;aspect=fixed;" parent="1" vertex="1">
          <mxGeometry x="250" y="150" width="80" height="80" as="geometry" />
        </mxCell>
        <mxCell id="bdEAc6ZdpRl-mZ2Yg-5d-6" value="Core Bancario" style="whiteSpace=wrap;html=1;aspect=fixed;" parent="1" vertex="1">
          <mxGeometry x="570" y="50" width="50" height="50" as="geometry" />
        </mxCell>
        <mxCell id="bdEAc6ZdpRl-mZ2Yg-5d-15" style="edgeStyle=orthogonalEdgeStyle;rounded=0;orthogonalLoop=1;jettySize=auto;html=1;" parent="1" source="bdEAc6ZdpRl-mZ2Yg-5d-7" target="bdEAc6ZdpRl-mZ2Yg-5d-6" edge="1">
          <mxGeometry relative="1" as="geometry" />
        </mxCell>
        <mxCell id="bdEAc6ZdpRl-mZ2Yg-5d-72" style="edgeStyle=orthogonalEdgeStyle;rounded=0;orthogonalLoop=1;jettySize=auto;html=1;entryX=0;entryY=0.5;entryDx=0;entryDy=0;" parent="1" source="bdEAc6ZdpRl-mZ2Yg-5d-7" target="bdEAc6ZdpRl-mZ2Yg-5d-71" edge="1">
          <mxGeometry relative="1" as="geometry">
            <Array as="points">
              <mxPoint x="525" y="120" />
              <mxPoint x="525" y="190" />
            </Array>
          </mxGeometry>
        </mxCell>
        <mxCell id="bdEAc6ZdpRl-mZ2Yg-5d-7" value="Middleware&lt;div&gt;Pagos&lt;/div&gt;&lt;div&gt;Transferencias&lt;/div&gt;&lt;div&gt;Movimientos&lt;/div&gt;" style="whiteSpace=wrap;html=1;aspect=fixed;" parent="1" vertex="1">
          <mxGeometry x="400" y="80" width="80" height="80" as="geometry" />
        </mxCell>
        <mxCell id="bdEAc6ZdpRl-mZ2Yg-5d-8" value="CRM" style="whiteSpace=wrap;html=1;aspect=fixed;" parent="1" vertex="1">
          <mxGeometry x="570" y="110" width="50" height="50" as="geometry" />
        </mxCell>
        <mxCell id="bdEAc6ZdpRl-mZ2Yg-5d-20" value="" style="rounded=1;whiteSpace=wrap;html=1;" parent="1" vertex="1">
          <mxGeometry x="-220" y="360" width="1060" height="450" as="geometry" />
        </mxCell>
        <mxCell id="bdEAc6ZdpRl-mZ2Yg-5d-21" value="&lt;font style=&quot;font-size: 18px;&quot;&gt;&lt;b&gt;Diagrama C2 - Contenedores- Sistea de Banca por Internet&lt;/b&gt;&lt;/font&gt;" style="text;html=1;align=center;verticalAlign=middle;whiteSpace=wrap;rounded=0;" parent="1" vertex="1">
          <mxGeometry x="40" y="370" width="550" height="30" as="geometry" />
        </mxCell>
        <mxCell id="bdEAc6ZdpRl-mZ2Yg-5d-22" value="" style="rounded=1;whiteSpace=wrap;html=1;dashed=1;dashPattern=8 8;" parent="1" vertex="1">
          <mxGeometry x="170" y="430" width="170" height="80" as="geometry" />
        </mxCell>
        <mxCell id="bdEAc6ZdpRl-mZ2Yg-5d-23" value="" style="rounded=1;whiteSpace=wrap;html=1;dashed=1;dashPattern=8 8;" parent="1" vertex="1">
          <mxGeometry x="180" y="580" width="150" height="80" as="geometry" />
        </mxCell>
        <mxCell id="bdEAc6ZdpRl-mZ2Yg-5d-24" value="" style="rounded=1;whiteSpace=wrap;html=1;dashed=1;dashPattern=8 8;" parent="1" vertex="1">
          <mxGeometry x="400" y="445" width="160" height="165" as="geometry" />
        </mxCell>
        <mxCell id="bdEAc6ZdpRl-mZ2Yg-5d-26" value="" style="rounded=1;whiteSpace=wrap;html=1;dashed=1;dashPattern=8 8;" parent="1" vertex="1">
          <mxGeometry x="630" y="430" width="170" height="120" as="geometry" />
        </mxCell>
        <mxCell id="bdEAc6ZdpRl-mZ2Yg-5d-27" value="" style="rounded=1;whiteSpace=wrap;html=1;dashed=1;dashPattern=8 8;" parent="1" vertex="1">
          <mxGeometry x="640" y="590" width="160" height="100" as="geometry" />
        </mxCell>
        <mxCell id="bdEAc6ZdpRl-mZ2Yg-5d-28" value="&lt;b&gt;Middleware&lt;/b&gt;" style="text;html=1;align=center;verticalAlign=middle;whiteSpace=wrap;rounded=0;" parent="1" vertex="1">
          <mxGeometry x="440" y="410" width="60" height="30" as="geometry" />
        </mxCell>
        <mxCell id="bdEAc6ZdpRl-mZ2Yg-5d-29" value="Backend Core Bancario" style="rounded=1;whiteSpace=wrap;html=1;" parent="1" vertex="1">
          <mxGeometry x="420" y="460" width="120" height="40" as="geometry" />
        </mxCell>
        <mxCell id="bdEAc6ZdpRl-mZ2Yg-5d-30" value="Backend Core Clientes" style="rounded=1;whiteSpace=wrap;html=1;" parent="1" vertex="1">
          <mxGeometry x="420" y="525" width="120" height="35" as="geometry" />
        </mxCell>
        <mxCell id="bdEAc6ZdpRl-mZ2Yg-5d-32" value="&lt;b&gt;CRM&lt;/b&gt;" style="text;html=1;align=center;verticalAlign=middle;whiteSpace=wrap;rounded=0;" parent="1" vertex="1">
          <mxGeometry x="670" y="560" width="60" height="30" as="geometry" />
        </mxCell>
        <mxCell id="bdEAc6ZdpRl-mZ2Yg-5d-33" value="&lt;b&gt;Core Bancario&lt;/b&gt;" style="text;html=1;align=center;verticalAlign=middle;whiteSpace=wrap;rounded=0;" parent="1" vertex="1">
          <mxGeometry x="665" y="400" width="90" height="30" as="geometry" />
        </mxCell>
        <mxCell id="bdEAc6ZdpRl-mZ2Yg-5d-35" value="&lt;b&gt;Canal Movil&lt;/b&gt;" style="text;html=1;align=center;verticalAlign=middle;whiteSpace=wrap;rounded=0;" parent="1" vertex="1">
          <mxGeometry x="190" y="400" width="80" height="30" as="geometry" />
        </mxCell>
        <mxCell id="bdEAc6ZdpRl-mZ2Yg-5d-37" value="Front End Movil" style="rounded=1;whiteSpace=wrap;html=1;" parent="1" vertex="1">
          <mxGeometry x="190" y="445" width="120" height="35" as="geometry" />
        </mxCell>
        <mxCell id="bdEAc6ZdpRl-mZ2Yg-5d-38" value="&lt;span style=&quot;color: rgb(0, 0, 0); font-family: Helvetica; font-size: 12px; font-style: normal; font-variant-ligatures: normal; font-variant-caps: normal; letter-spacing: normal; orphans: 2; text-align: center; text-indent: 0px; text-transform: none; widows: 2; word-spacing: 0px; -webkit-text-stroke-width: 0px; white-space: normal; background-color: rgb(236, 236, 236); text-decoration-thickness: initial; text-decoration-style: initial; text-decoration-color: initial; float: none; display: inline !important;&quot;&gt;&lt;b&gt;Canal Web&lt;/b&gt;&lt;/span&gt;" style="text;whiteSpace=wrap;html=1;" parent="1" vertex="1">
          <mxGeometry x="190" y="550" width="90" height="40" as="geometry" />
        </mxCell>
        <mxCell id="bdEAc6ZdpRl-mZ2Yg-5d-39" value="Front End Web SPA" style="rounded=1;whiteSpace=wrap;html=1;" parent="1" vertex="1">
          <mxGeometry x="195" y="610" width="120" height="30" as="geometry" />
        </mxCell>
        <mxCell id="bdEAc6ZdpRl-mZ2Yg-5d-40" value="Clientes" style="rounded=1;whiteSpace=wrap;html=1;" parent="1" vertex="1">
          <mxGeometry x="675" y="490" width="80" height="30" as="geometry" />
        </mxCell>
        <mxCell id="bdEAc6ZdpRl-mZ2Yg-5d-41" value="Auditoria" style="rounded=1;whiteSpace=wrap;html=1;" parent="1" vertex="1">
          <mxGeometry x="670" y="630" width="100" height="20" as="geometry" />
        </mxCell>
        <mxCell id="bdEAc6ZdpRl-mZ2Yg-5d-42" value="Cuentas" style="rounded=1;whiteSpace=wrap;html=1;" parent="1" vertex="1">
          <mxGeometry x="675" y="445" width="80" height="15" as="geometry" />
        </mxCell>
        <mxCell id="bdEAc6ZdpRl-mZ2Yg-5d-43" style="edgeStyle=orthogonalEdgeStyle;rounded=0;orthogonalLoop=1;jettySize=auto;html=1;entryX=0.038;entryY=0.32;entryDx=0;entryDy=0;entryPerimeter=0;" parent="1" source="bdEAc6ZdpRl-mZ2Yg-5d-22" target="bdEAc6ZdpRl-mZ2Yg-5d-24" edge="1">
          <mxGeometry relative="1" as="geometry" />
        </mxCell>
        <mxCell id="bdEAc6ZdpRl-mZ2Yg-5d-44" style="edgeStyle=orthogonalEdgeStyle;rounded=0;orthogonalLoop=1;jettySize=auto;html=1;entryX=0.048;entryY=0.659;entryDx=0;entryDy=0;entryPerimeter=0;" parent="1" source="bdEAc6ZdpRl-mZ2Yg-5d-23" target="bdEAc6ZdpRl-mZ2Yg-5d-24" edge="1">
          <mxGeometry relative="1" as="geometry" />
        </mxCell>
        <mxCell id="bdEAc6ZdpRl-mZ2Yg-5d-45" style="edgeStyle=orthogonalEdgeStyle;rounded=0;orthogonalLoop=1;jettySize=auto;html=1;entryX=0.024;entryY=0.606;entryDx=0;entryDy=0;entryPerimeter=0;" parent="1" source="bdEAc6ZdpRl-mZ2Yg-5d-24" target="bdEAc6ZdpRl-mZ2Yg-5d-26" edge="1">
          <mxGeometry relative="1" as="geometry" />
        </mxCell>
        <mxCell id="bdEAc6ZdpRl-mZ2Yg-5d-46" style="edgeStyle=orthogonalEdgeStyle;rounded=0;orthogonalLoop=1;jettySize=auto;html=1;entryX=0.053;entryY=0.457;entryDx=0;entryDy=0;entryPerimeter=0;" parent="1" source="bdEAc6ZdpRl-mZ2Yg-5d-24" target="bdEAc6ZdpRl-mZ2Yg-5d-27" edge="1">
          <mxGeometry relative="1" as="geometry" />
        </mxCell>
        <mxCell id="bdEAc6ZdpRl-mZ2Yg-5d-47" style="edgeStyle=orthogonalEdgeStyle;rounded=0;orthogonalLoop=1;jettySize=auto;html=1;entryX=0.09;entryY=0.508;entryDx=0;entryDy=0;entryPerimeter=0;" parent="1" source="bdEAc6ZdpRl-mZ2Yg-5d-7" target="bdEAc6ZdpRl-mZ2Yg-5d-8" edge="1">
          <mxGeometry relative="1" as="geometry" />
        </mxCell>
        <mxCell id="bdEAc6ZdpRl-mZ2Yg-5d-58" style="edgeStyle=orthogonalEdgeStyle;rounded=0;orthogonalLoop=1;jettySize=auto;html=1;entryX=0;entryY=0.5;entryDx=0;entryDy=0;" parent="1" source="bdEAc6ZdpRl-mZ2Yg-5d-48" target="bdEAc6ZdpRl-mZ2Yg-5d-56" edge="1">
          <mxGeometry relative="1" as="geometry" />
        </mxCell>
        <mxCell id="bdEAc6ZdpRl-mZ2Yg-5d-48" value="Api Movimientos" style="rounded=1;whiteSpace=wrap;html=1;" parent="1" vertex="1">
          <mxGeometry x="-40" y="1700" width="120" height="30" as="geometry" />
        </mxCell>
        <mxCell id="E_HUhhQDJXJuaxSUBeKh-7" style="edgeStyle=orthogonalEdgeStyle;rounded=0;orthogonalLoop=1;jettySize=auto;html=1;entryX=0;entryY=0.75;entryDx=0;entryDy=0;" edge="1" parent="1" source="bdEAc6ZdpRl-mZ2Yg-5d-49" target="bdEAc6ZdpRl-mZ2Yg-5d-51">
          <mxGeometry relative="1" as="geometry" />
        </mxCell>
        <mxCell id="E_HUhhQDJXJuaxSUBeKh-8" style="edgeStyle=orthogonalEdgeStyle;rounded=0;orthogonalLoop=1;jettySize=auto;html=1;entryX=0;entryY=0.5;entryDx=0;entryDy=0;" edge="1" parent="1" source="bdEAc6ZdpRl-mZ2Yg-5d-49" target="bdEAc6ZdpRl-mZ2Yg-5d-53">
          <mxGeometry relative="1" as="geometry" />
        </mxCell>
        <mxCell id="bdEAc6ZdpRl-mZ2Yg-5d-49" value="Api Transferencias&amp;nbsp;" style="rounded=1;whiteSpace=wrap;html=1;" parent="1" vertex="1">
          <mxGeometry x="-40" y="1780" width="110" height="30" as="geometry" />
        </mxCell>
        <mxCell id="bdEAc6ZdpRl-mZ2Yg-5d-63" style="edgeStyle=orthogonalEdgeStyle;rounded=0;orthogonalLoop=1;jettySize=auto;html=1;entryX=0;entryY=0.5;entryDx=0;entryDy=0;" parent="1" source="bdEAc6ZdpRl-mZ2Yg-5d-50" target="bdEAc6ZdpRl-mZ2Yg-5d-61" edge="1">
          <mxGeometry relative="1" as="geometry" />
        </mxCell>
        <mxCell id="bdEAc6ZdpRl-mZ2Yg-5d-64" style="edgeStyle=orthogonalEdgeStyle;rounded=0;orthogonalLoop=1;jettySize=auto;html=1;entryX=0;entryY=0.5;entryDx=0;entryDy=0;" parent="1" source="bdEAc6ZdpRl-mZ2Yg-5d-50" target="bdEAc6ZdpRl-mZ2Yg-5d-62" edge="1">
          <mxGeometry relative="1" as="geometry" />
        </mxCell>
        <mxCell id="bdEAc6ZdpRl-mZ2Yg-5d-50" value="Api Pagos" style="rounded=1;whiteSpace=wrap;html=1;" parent="1" vertex="1">
          <mxGeometry x="-40" y="1910" width="120" height="30" as="geometry" />
        </mxCell>
        <mxCell id="bdEAc6ZdpRl-mZ2Yg-5d-147" style="edgeStyle=orthogonalEdgeStyle;rounded=0;orthogonalLoop=1;jettySize=auto;html=1;entryX=0;entryY=0.25;entryDx=0;entryDy=0;" parent="1" source="bdEAc6ZdpRl-mZ2Yg-5d-51" target="E_HUhhQDJXJuaxSUBeKh-4" edge="1">
          <mxGeometry relative="1" as="geometry" />
        </mxCell>
        <mxCell id="bdEAc6ZdpRl-mZ2Yg-5d-51" value="Api Transferemcias propias" style="rounded=1;whiteSpace=wrap;html=1;" parent="1" vertex="1">
          <mxGeometry x="320" y="1765" width="120" height="30" as="geometry" />
        </mxCell>
        <mxCell id="E_HUhhQDJXJuaxSUBeKh-5" style="edgeStyle=orthogonalEdgeStyle;rounded=0;orthogonalLoop=1;jettySize=auto;html=1;entryX=0.052;entryY=0.616;entryDx=0;entryDy=0;entryPerimeter=0;" edge="1" parent="1" source="bdEAc6ZdpRl-mZ2Yg-5d-53" target="E_HUhhQDJXJuaxSUBeKh-4">
          <mxGeometry relative="1" as="geometry" />
        </mxCell>
        <mxCell id="bdEAc6ZdpRl-mZ2Yg-5d-53" value="Api Transferemcias Interbancarias" style="rounded=1;whiteSpace=wrap;html=1;" parent="1" vertex="1">
          <mxGeometry x="320" y="1810" width="120" height="30" as="geometry" />
        </mxCell>
        <mxCell id="bdEAc6ZdpRl-mZ2Yg-5d-150" style="edgeStyle=orthogonalEdgeStyle;rounded=0;orthogonalLoop=1;jettySize=auto;html=1;entryX=0;entryY=0.5;entryDx=0;entryDy=0;" parent="1" source="bdEAc6ZdpRl-mZ2Yg-5d-56" target="E_HUhhQDJXJuaxSUBeKh-34" edge="1">
          <mxGeometry relative="1" as="geometry" />
        </mxCell>
        <mxCell id="bdEAc6ZdpRl-mZ2Yg-5d-56" value="Api Registra Movimientos" style="rounded=1;whiteSpace=wrap;html=1;" parent="1" vertex="1">
          <mxGeometry x="320" y="1690" width="120" height="30" as="geometry" />
        </mxCell>
        <mxCell id="E_HUhhQDJXJuaxSUBeKh-35" style="edgeStyle=orthogonalEdgeStyle;rounded=0;orthogonalLoop=1;jettySize=auto;html=1;entryX=0;entryY=0.75;entryDx=0;entryDy=0;" edge="1" parent="1" source="bdEAc6ZdpRl-mZ2Yg-5d-57" target="E_HUhhQDJXJuaxSUBeKh-34">
          <mxGeometry relative="1" as="geometry" />
        </mxCell>
        <mxCell id="bdEAc6ZdpRl-mZ2Yg-5d-57" value="Api Consulta Movimientos" style="rounded=1;whiteSpace=wrap;html=1;" parent="1" vertex="1">
          <mxGeometry x="320" y="1730" width="120" height="30" as="geometry" />
        </mxCell>
        <mxCell id="bdEAc6ZdpRl-mZ2Yg-5d-60" style="edgeStyle=orthogonalEdgeStyle;rounded=0;orthogonalLoop=1;jettySize=auto;html=1;entryX=0.063;entryY=0.7;entryDx=0;entryDy=0;entryPerimeter=0;" parent="1" source="bdEAc6ZdpRl-mZ2Yg-5d-48" target="bdEAc6ZdpRl-mZ2Yg-5d-57" edge="1">
          <mxGeometry relative="1" as="geometry">
            <Array as="points">
              <mxPoint x="200" y="1715" />
              <mxPoint x="200" y="1751" />
            </Array>
          </mxGeometry>
        </mxCell>
        <mxCell id="bdEAc6ZdpRl-mZ2Yg-5d-151" style="edgeStyle=orthogonalEdgeStyle;rounded=0;orthogonalLoop=1;jettySize=auto;html=1;entryX=0;entryY=0.5;entryDx=0;entryDy=0;" parent="1" source="bdEAc6ZdpRl-mZ2Yg-5d-61" target="bdEAc6ZdpRl-mZ2Yg-5d-139" edge="1">
          <mxGeometry relative="1" as="geometry" />
        </mxCell>
        <mxCell id="bdEAc6ZdpRl-mZ2Yg-5d-61" value="Api pagos internos" style="rounded=1;whiteSpace=wrap;html=1;" parent="1" vertex="1">
          <mxGeometry x="320" y="1930" width="120" height="30" as="geometry" />
        </mxCell>
        <mxCell id="bdEAc6ZdpRl-mZ2Yg-5d-153" style="edgeStyle=orthogonalEdgeStyle;rounded=0;orthogonalLoop=1;jettySize=auto;html=1;entryX=0;entryY=0.5;entryDx=0;entryDy=0;" parent="1" source="bdEAc6ZdpRl-mZ2Yg-5d-62" target="bdEAc6ZdpRl-mZ2Yg-5d-152" edge="1">
          <mxGeometry relative="1" as="geometry" />
        </mxCell>
        <mxCell id="bdEAc6ZdpRl-mZ2Yg-5d-62" value="Api pagos terceros" style="rounded=1;whiteSpace=wrap;html=1;" parent="1" vertex="1">
          <mxGeometry x="320" y="1970" width="120" height="30" as="geometry" />
        </mxCell>
        <mxCell id="bdEAc6ZdpRl-mZ2Yg-5d-65" value="Detalle Clientes" style="rounded=1;whiteSpace=wrap;html=1;" parent="1" vertex="1">
          <mxGeometry x="670" y="600" width="100" height="20" as="geometry" />
        </mxCell>
        <mxCell id="bdEAc6ZdpRl-mZ2Yg-5d-68" value="Movimientos" style="rounded=1;whiteSpace=wrap;html=1;" parent="1" vertex="1">
          <mxGeometry x="675" y="462.5" width="80" height="17.5" as="geometry" />
        </mxCell>
        <mxCell id="bdEAc6ZdpRl-mZ2Yg-5d-69" value="Producto" style="text;html=1;align=center;verticalAlign=middle;whiteSpace=wrap;rounded=0;" parent="1" vertex="1">
          <mxGeometry x="640" y="420" width="60" height="30" as="geometry" />
        </mxCell>
        <mxCell id="bdEAc6ZdpRl-mZ2Yg-5d-70" value="Notificaciones" style="rounded=1;whiteSpace=wrap;html=1;" parent="1" vertex="1">
          <mxGeometry x="670" y="660" width="100" height="20" as="geometry" />
        </mxCell>
        <mxCell id="bdEAc6ZdpRl-mZ2Yg-5d-71" value="Notificaciones" style="whiteSpace=wrap;html=1;aspect=fixed;" parent="1" vertex="1">
          <mxGeometry x="570" y="165" width="50" height="50" as="geometry" />
        </mxCell>
        <mxCell id="bdEAc6ZdpRl-mZ2Yg-5d-73" value="" style="rounded=1;whiteSpace=wrap;html=1;dashed=1;dashPattern=8 8;" parent="1" vertex="1">
          <mxGeometry x="640" y="730" width="160" height="60" as="geometry" />
        </mxCell>
        <mxCell id="bdEAc6ZdpRl-mZ2Yg-5d-74" value="&lt;b&gt;Notificaciones&lt;/b&gt;" style="text;html=1;align=center;verticalAlign=middle;whiteSpace=wrap;rounded=0;" parent="1" vertex="1">
          <mxGeometry x="685" y="700" width="60" height="30" as="geometry" />
        </mxCell>
        <mxCell id="bdEAc6ZdpRl-mZ2Yg-5d-75" value="Notificaciones" style="rounded=1;whiteSpace=wrap;html=1;" parent="1" vertex="1">
          <mxGeometry x="665" y="740" width="100" height="20" as="geometry" />
        </mxCell>
        <mxCell id="bdEAc6ZdpRl-mZ2Yg-5d-76" style="edgeStyle=orthogonalEdgeStyle;rounded=0;orthogonalLoop=1;jettySize=auto;html=1;entryX=-0.006;entryY=0.631;entryDx=0;entryDy=0;entryPerimeter=0;" parent="1" source="bdEAc6ZdpRl-mZ2Yg-5d-24" target="bdEAc6ZdpRl-mZ2Yg-5d-73" edge="1">
          <mxGeometry relative="1" as="geometry" />
        </mxCell>
        <mxCell id="bdEAc6ZdpRl-mZ2Yg-5d-80" style="edgeStyle=orthogonalEdgeStyle;rounded=0;orthogonalLoop=1;jettySize=auto;html=1;entryX=0;entryY=0.5;entryDx=0;entryDy=0;" parent="1" source="bdEAc6ZdpRl-mZ2Yg-5d-77" target="bdEAc6ZdpRl-mZ2Yg-5d-22" edge="1">
          <mxGeometry relative="1" as="geometry" />
        </mxCell>
        <mxCell id="bdEAc6ZdpRl-mZ2Yg-5d-81" style="edgeStyle=orthogonalEdgeStyle;rounded=0;orthogonalLoop=1;jettySize=auto;html=1;entryX=0;entryY=0.75;entryDx=0;entryDy=0;" parent="1" source="bdEAc6ZdpRl-mZ2Yg-5d-77" target="bdEAc6ZdpRl-mZ2Yg-5d-23" edge="1">
          <mxGeometry relative="1" as="geometry" />
        </mxCell>
        <mxCell id="bdEAc6ZdpRl-mZ2Yg-5d-77" value="" style="rounded=1;whiteSpace=wrap;html=1;dashed=1;dashPattern=8 8;" parent="1" vertex="1">
          <mxGeometry x="-40" y="500" width="170" height="110" as="geometry" />
        </mxCell>
        <mxCell id="bdEAc6ZdpRl-mZ2Yg-5d-78" value="&lt;b&gt;Seguridad&lt;/b&gt;" style="text;html=1;align=center;verticalAlign=middle;whiteSpace=wrap;rounded=0;" parent="1" vertex="1">
          <mxGeometry y="460" width="80" height="30" as="geometry" />
        </mxCell>
        <mxCell id="bdEAc6ZdpRl-mZ2Yg-5d-79" value="Autenticación / Autorización" style="rounded=1;whiteSpace=wrap;html=1;" parent="1" vertex="1">
          <mxGeometry x="-20" y="515" width="120" height="35" as="geometry" />
        </mxCell>
        <mxCell id="bdEAc6ZdpRl-mZ2Yg-5d-83" style="edgeStyle=orthogonalEdgeStyle;rounded=0;orthogonalLoop=1;jettySize=auto;html=1;entryX=0;entryY=0.5;entryDx=0;entryDy=0;" parent="1" source="bdEAc6ZdpRl-mZ2Yg-5d-82" target="bdEAc6ZdpRl-mZ2Yg-5d-77" edge="1">
          <mxGeometry relative="1" as="geometry" />
        </mxCell>
        <mxCell id="bdEAc6ZdpRl-mZ2Yg-5d-82" value="Clientes" style="shape=umlActor;verticalLabelPosition=bottom;verticalAlign=top;html=1;outlineConnect=0;" parent="1" vertex="1">
          <mxGeometry x="-150" y="485" width="30" height="60" as="geometry" />
        </mxCell>
        <mxCell id="bdEAc6ZdpRl-mZ2Yg-5d-85" value="React NODEJS" style="text;html=1;align=center;verticalAlign=middle;whiteSpace=wrap;rounded=0;" parent="1" vertex="1">
          <mxGeometry x="200" y="670" width="60" height="30" as="geometry" />
        </mxCell>
        <mxCell id="bdEAc6ZdpRl-mZ2Yg-5d-86" value="Fluter" style="text;html=1;align=center;verticalAlign=middle;whiteSpace=wrap;rounded=0;" parent="1" vertex="1">
          <mxGeometry x="205" y="512.5" width="60" height="30" as="geometry" />
        </mxCell>
        <mxCell id="bdEAc6ZdpRl-mZ2Yg-5d-87" value="Reconocimiento Facial" style="rounded=1;whiteSpace=wrap;html=1;" parent="1" vertex="1">
          <mxGeometry x="-15" y="560" width="120" height="35" as="geometry" />
        </mxCell>
        <mxCell id="bdEAc6ZdpRl-mZ2Yg-5d-88" value="Seguridad transversal para todo el modelo, Ley de Datos Personales, PCI para Tarjetas, Cifrado de Canal, Cifrado en Reposo, Certificados" style="text;html=1;align=center;verticalAlign=middle;whiteSpace=wrap;rounded=0;" parent="1" vertex="1">
          <mxGeometry x="140" y="260" width="530" height="30" as="geometry" />
        </mxCell>
        <mxCell id="bdEAc6ZdpRl-mZ2Yg-5d-90" value="&lt;b&gt;&lt;font style=&quot;font-size: 18px;&quot;&gt;Diagrama C3 - Componentes - Sistema de Banca por Internet&lt;/font&gt;&lt;/b&gt;" style="text;html=1;align=center;verticalAlign=middle;whiteSpace=wrap;rounded=0;" parent="1" vertex="1">
          <mxGeometry x="50" y="940" width="610" height="30" as="geometry" />
        </mxCell>
        <mxCell id="bdEAc6ZdpRl-mZ2Yg-5d-91" value="" style="rounded=1;whiteSpace=wrap;html=1;dashed=1;dashPattern=8 8;" parent="1" vertex="1">
          <mxGeometry x="-170" y="1000" width="290" height="80" as="geometry" />
        </mxCell>
        <mxCell id="bdEAc6ZdpRl-mZ2Yg-5d-190" style="edgeStyle=orthogonalEdgeStyle;rounded=0;orthogonalLoop=1;jettySize=auto;html=1;entryX=0;entryY=0.5;entryDx=0;entryDy=0;" parent="1" source="bdEAc6ZdpRl-mZ2Yg-5d-92" target="bdEAc6ZdpRl-mZ2Yg-5d-189" edge="1">
          <mxGeometry relative="1" as="geometry" />
        </mxCell>
        <mxCell id="bdEAc6ZdpRl-mZ2Yg-5d-92" value="" style="rounded=1;whiteSpace=wrap;html=1;dashed=1;dashPattern=8 8;arcSize=17;" parent="1" vertex="1">
          <mxGeometry x="-160" y="1150" width="290" height="80" as="geometry" />
        </mxCell>
        <mxCell id="bdEAc6ZdpRl-mZ2Yg-5d-94" value="" style="rounded=1;whiteSpace=wrap;html=1;dashed=1;dashPattern=8 8;" parent="1" vertex="1">
          <mxGeometry x="855" y="1000" width="520" height="120" as="geometry" />
        </mxCell>
        <mxCell id="bdEAc6ZdpRl-mZ2Yg-5d-95" value="" style="rounded=1;whiteSpace=wrap;html=1;dashed=1;dashPattern=8 8;" parent="1" vertex="1">
          <mxGeometry x="865" y="1160" width="510" height="100" as="geometry" />
        </mxCell>
        <mxCell id="bdEAc6ZdpRl-mZ2Yg-5d-96" value="&lt;b&gt;Middleware - Backend&lt;/b&gt;" style="text;html=1;align=center;verticalAlign=middle;whiteSpace=wrap;rounded=0;" parent="1" vertex="1">
          <mxGeometry x="360" y="980" width="160" height="30" as="geometry" />
        </mxCell>
        <mxCell id="bdEAc6ZdpRl-mZ2Yg-5d-182" style="edgeStyle=orthogonalEdgeStyle;rounded=0;orthogonalLoop=1;jettySize=auto;html=1;entryX=0;entryY=0.5;entryDx=0;entryDy=0;" parent="1" source="bdEAc6ZdpRl-mZ2Yg-5d-97" target="bdEAc6ZdpRl-mZ2Yg-5d-180" edge="1">
          <mxGeometry relative="1" as="geometry" />
        </mxCell>
        <mxCell id="bdEAc6ZdpRl-mZ2Yg-5d-183" style="edgeStyle=orthogonalEdgeStyle;rounded=0;orthogonalLoop=1;jettySize=auto;html=1;entryX=0;entryY=0.75;entryDx=0;entryDy=0;" parent="1" source="bdEAc6ZdpRl-mZ2Yg-5d-97" target="bdEAc6ZdpRl-mZ2Yg-5d-98" edge="1">
          <mxGeometry relative="1" as="geometry" />
        </mxCell>
        <mxCell id="bdEAc6ZdpRl-mZ2Yg-5d-184" style="edgeStyle=orthogonalEdgeStyle;rounded=0;orthogonalLoop=1;jettySize=auto;html=1;entryX=0.5;entryY=0;entryDx=0;entryDy=0;" parent="1" source="bdEAc6ZdpRl-mZ2Yg-5d-97" target="bdEAc6ZdpRl-mZ2Yg-5d-181" edge="1">
          <mxGeometry relative="1" as="geometry" />
        </mxCell>
        <mxCell id="bdEAc6ZdpRl-mZ2Yg-5d-97" value="Api Gateway" style="rounded=1;whiteSpace=wrap;html=1;" parent="1" vertex="1">
          <mxGeometry x="335" y="1067.5" width="100" height="32.5" as="geometry" />
        </mxCell>
        <mxCell id="E_HUhhQDJXJuaxSUBeKh-46" style="edgeStyle=orthogonalEdgeStyle;rounded=0;orthogonalLoop=1;jettySize=auto;html=1;entryX=0.5;entryY=0;entryDx=0;entryDy=0;" edge="1" parent="1" source="bdEAc6ZdpRl-mZ2Yg-5d-98" target="E_HUhhQDJXJuaxSUBeKh-43">
          <mxGeometry relative="1" as="geometry" />
        </mxCell>
        <mxCell id="E_HUhhQDJXJuaxSUBeKh-48" style="edgeStyle=orthogonalEdgeStyle;rounded=0;orthogonalLoop=1;jettySize=auto;html=1;" edge="1" parent="1" source="bdEAc6ZdpRl-mZ2Yg-5d-98" target="E_HUhhQDJXJuaxSUBeKh-47">
          <mxGeometry relative="1" as="geometry" />
        </mxCell>
        <mxCell id="bdEAc6ZdpRl-mZ2Yg-5d-98" value="Contenedores Core Clientes" style="rounded=1;whiteSpace=wrap;html=1;" parent="1" vertex="1">
          <mxGeometry x="480" y="1100" width="110" height="30" as="geometry" />
        </mxCell>
        <mxCell id="bdEAc6ZdpRl-mZ2Yg-5d-99" value="&lt;b&gt;CRM&lt;/b&gt;" style="text;html=1;align=center;verticalAlign=middle;whiteSpace=wrap;rounded=0;" parent="1" vertex="1">
          <mxGeometry x="895" y="1130" width="60" height="30" as="geometry" />
        </mxCell>
        <mxCell id="bdEAc6ZdpRl-mZ2Yg-5d-100" value="&lt;b&gt;Core Bancario&lt;/b&gt;" style="text;html=1;align=center;verticalAlign=middle;whiteSpace=wrap;rounded=0;" parent="1" vertex="1">
          <mxGeometry x="890" y="970" width="90" height="30" as="geometry" />
        </mxCell>
        <mxCell id="bdEAc6ZdpRl-mZ2Yg-5d-101" value="&lt;b&gt;Canal Movil&lt;/b&gt;" style="text;html=1;align=center;verticalAlign=middle;whiteSpace=wrap;rounded=0;" parent="1" vertex="1">
          <mxGeometry x="-150" y="970" width="80" height="30" as="geometry" />
        </mxCell>
        <mxCell id="bdEAc6ZdpRl-mZ2Yg-5d-222" style="edgeStyle=orthogonalEdgeStyle;rounded=0;orthogonalLoop=1;jettySize=auto;html=1;entryX=0;entryY=0.5;entryDx=0;entryDy=0;" parent="1" source="bdEAc6ZdpRl-mZ2Yg-5d-102" target="bdEAc6ZdpRl-mZ2Yg-5d-221" edge="1">
          <mxGeometry relative="1" as="geometry" />
        </mxCell>
        <mxCell id="bdEAc6ZdpRl-mZ2Yg-5d-102" value="Amplify" style="rounded=1;whiteSpace=wrap;html=1;" parent="1" vertex="1">
          <mxGeometry x="-140" y="1015" width="90" height="25" as="geometry" />
        </mxCell>
        <mxCell id="bdEAc6ZdpRl-mZ2Yg-5d-103" value="&lt;span style=&quot;color: rgb(0, 0, 0); font-family: Helvetica; font-size: 12px; font-style: normal; font-variant-ligatures: normal; font-variant-caps: normal; letter-spacing: normal; orphans: 2; text-align: center; text-indent: 0px; text-transform: none; widows: 2; word-spacing: 0px; -webkit-text-stroke-width: 0px; white-space: normal; background-color: rgb(236, 236, 236); text-decoration-thickness: initial; text-decoration-style: initial; text-decoration-color: initial; float: none; display: inline !important;&quot;&gt;&lt;b&gt;Canal Web&lt;/b&gt;&lt;/span&gt;" style="text;whiteSpace=wrap;html=1;" parent="1" vertex="1">
          <mxGeometry x="-150" y="1120" width="90" height="40" as="geometry" />
        </mxCell>
        <mxCell id="bdEAc6ZdpRl-mZ2Yg-5d-104" value="Statict Web Service / Bucket S3" style="rounded=1;whiteSpace=wrap;html=1;" parent="1" vertex="1">
          <mxGeometry y="1180" width="120" height="30" as="geometry" />
        </mxCell>
        <mxCell id="bdEAc6ZdpRl-mZ2Yg-5d-105" value="Clientes" style="rounded=1;whiteSpace=wrap;html=1;" parent="1" vertex="1">
          <mxGeometry x="1095" y="1042.5" width="80" height="20" as="geometry" />
        </mxCell>
        <mxCell id="bdEAc6ZdpRl-mZ2Yg-5d-106" value="Auditoria" style="rounded=1;whiteSpace=wrap;html=1;" parent="1" vertex="1">
          <mxGeometry x="1115" y="1185" width="100" height="20" as="geometry" />
        </mxCell>
        <mxCell id="bdEAc6ZdpRl-mZ2Yg-5d-107" value="Cuentas" style="rounded=1;whiteSpace=wrap;html=1;" parent="1" vertex="1">
          <mxGeometry x="935" y="1045" width="80" height="15" as="geometry" />
        </mxCell>
        <mxCell id="bdEAc6ZdpRl-mZ2Yg-5d-108" style="edgeStyle=orthogonalEdgeStyle;rounded=0;orthogonalLoop=1;jettySize=auto;html=1;entryX=0;entryY=0.5;entryDx=0;entryDy=0;" parent="1" source="bdEAc6ZdpRl-mZ2Yg-5d-91" target="bdEAc6ZdpRl-mZ2Yg-5d-189" edge="1">
          <mxGeometry relative="1" as="geometry" />
        </mxCell>
        <mxCell id="bdEAc6ZdpRl-mZ2Yg-5d-110" style="edgeStyle=orthogonalEdgeStyle;rounded=0;orthogonalLoop=1;jettySize=auto;html=1;entryX=0.14;entryY=0.585;entryDx=0;entryDy=0;entryPerimeter=0;" parent="1" source="bdEAc6ZdpRl-mZ2Yg-5d-93" target="bdEAc6ZdpRl-mZ2Yg-5d-162" edge="1">
          <mxGeometry relative="1" as="geometry">
            <Array as="points">
              <mxPoint x="650" y="1097" />
              <mxPoint x="650" y="1067" />
            </Array>
          </mxGeometry>
        </mxCell>
        <mxCell id="bdEAc6ZdpRl-mZ2Yg-5d-111" style="edgeStyle=orthogonalEdgeStyle;rounded=0;orthogonalLoop=1;jettySize=auto;html=1;entryX=0.053;entryY=0.457;entryDx=0;entryDy=0;entryPerimeter=0;" parent="1" source="bdEAc6ZdpRl-mZ2Yg-5d-93" target="bdEAc6ZdpRl-mZ2Yg-5d-95" edge="1">
          <mxGeometry relative="1" as="geometry" />
        </mxCell>
        <mxCell id="bdEAc6ZdpRl-mZ2Yg-5d-112" value="Detalle Clientes" style="rounded=1;whiteSpace=wrap;html=1;" parent="1" vertex="1">
          <mxGeometry x="945" y="1190" width="100" height="20" as="geometry" />
        </mxCell>
        <mxCell id="bdEAc6ZdpRl-mZ2Yg-5d-113" value="Movimientos" style="rounded=1;whiteSpace=wrap;html=1;" parent="1" vertex="1">
          <mxGeometry x="945" y="1067.5" width="80" height="17.5" as="geometry" />
        </mxCell>
        <mxCell id="bdEAc6ZdpRl-mZ2Yg-5d-115" value="Notificaciones" style="rounded=1;whiteSpace=wrap;html=1;" parent="1" vertex="1">
          <mxGeometry x="1305" y="1180" width="100" height="20" as="geometry" />
        </mxCell>
        <mxCell id="bdEAc6ZdpRl-mZ2Yg-5d-116" value="" style="rounded=1;whiteSpace=wrap;html=1;dashed=1;dashPattern=8 8;" parent="1" vertex="1">
          <mxGeometry x="865" y="1300" width="500" height="80" as="geometry" />
        </mxCell>
        <mxCell id="bdEAc6ZdpRl-mZ2Yg-5d-117" value="&lt;b&gt;Notificaciones&lt;/b&gt;" style="text;html=1;align=center;verticalAlign=middle;whiteSpace=wrap;rounded=0;" parent="1" vertex="1">
          <mxGeometry x="910" y="1270" width="60" height="30" as="geometry" />
        </mxCell>
        <mxCell id="bdEAc6ZdpRl-mZ2Yg-5d-119" style="edgeStyle=orthogonalEdgeStyle;rounded=0;orthogonalLoop=1;jettySize=auto;html=1;entryX=0;entryY=0;entryDx=0;entryDy=52.5;entryPerimeter=0;" parent="1" source="bdEAc6ZdpRl-mZ2Yg-5d-93" target="bdEAc6ZdpRl-mZ2Yg-5d-168" edge="1">
          <mxGeometry relative="1" as="geometry">
            <Array as="points">
              <mxPoint x="650" y="1097" />
              <mxPoint x="650" y="1353" />
            </Array>
          </mxGeometry>
        </mxCell>
        <mxCell id="bdEAc6ZdpRl-mZ2Yg-5d-121" style="edgeStyle=orthogonalEdgeStyle;rounded=0;orthogonalLoop=1;jettySize=auto;html=1;entryX=0;entryY=0.5;entryDx=0;entryDy=0;exitX=1;exitY=0.5;exitDx=0;exitDy=0;" parent="1" source="bdEAc6ZdpRl-mZ2Yg-5d-124" target="bdEAc6ZdpRl-mZ2Yg-5d-207" edge="1">
          <mxGeometry relative="1" as="geometry" />
        </mxCell>
        <mxCell id="bdEAc6ZdpRl-mZ2Yg-5d-122" value="" style="rounded=1;whiteSpace=wrap;html=1;dashed=1;dashPattern=8 8;" parent="1" vertex="1">
          <mxGeometry x="-380" y="1070" width="170" height="180" as="geometry" />
        </mxCell>
        <mxCell id="bdEAc6ZdpRl-mZ2Yg-5d-123" value="&lt;b&gt;Seguridad&lt;/b&gt;" style="text;html=1;align=center;verticalAlign=middle;whiteSpace=wrap;rounded=0;" parent="1" vertex="1">
          <mxGeometry x="-380" y="1038" width="80" height="30" as="geometry" />
        </mxCell>
        <mxCell id="bdEAc6ZdpRl-mZ2Yg-5d-204" style="edgeStyle=orthogonalEdgeStyle;rounded=0;orthogonalLoop=1;jettySize=auto;html=1;entryX=0.5;entryY=0;entryDx=0;entryDy=0;" parent="1" source="bdEAc6ZdpRl-mZ2Yg-5d-124" target="bdEAc6ZdpRl-mZ2Yg-5d-203" edge="1">
          <mxGeometry relative="1" as="geometry" />
        </mxCell>
        <mxCell id="bdEAc6ZdpRl-mZ2Yg-5d-124" value="Cognito&amp;nbsp;" style="rounded=1;whiteSpace=wrap;html=1;" parent="1" vertex="1">
          <mxGeometry x="-360" y="1082.5" width="120" height="25" as="geometry" />
        </mxCell>
        <mxCell id="bdEAc6ZdpRl-mZ2Yg-5d-212" style="edgeStyle=orthogonalEdgeStyle;rounded=0;orthogonalLoop=1;jettySize=auto;html=1;entryX=0;entryY=0.5;entryDx=0;entryDy=0;" parent="1" source="bdEAc6ZdpRl-mZ2Yg-5d-126" target="bdEAc6ZdpRl-mZ2Yg-5d-210" edge="1">
          <mxGeometry relative="1" as="geometry" />
        </mxCell>
        <mxCell id="bdEAc6ZdpRl-mZ2Yg-5d-126" value="Clientes" style="shape=umlActor;verticalLabelPosition=bottom;verticalAlign=top;html=1;outlineConnect=0;" parent="1" vertex="1">
          <mxGeometry x="-670" y="1053.75" width="30" height="60" as="geometry" />
        </mxCell>
        <mxCell id="bdEAc6ZdpRl-mZ2Yg-5d-127" value="React NODEJS" style="text;html=1;align=center;verticalAlign=middle;whiteSpace=wrap;rounded=0;" parent="1" vertex="1">
          <mxGeometry x="-140" y="1240" width="60" height="30" as="geometry" />
        </mxCell>
        <mxCell id="bdEAc6ZdpRl-mZ2Yg-5d-128" value="Fluter" style="text;html=1;align=center;verticalAlign=middle;whiteSpace=wrap;rounded=0;" parent="1" vertex="1">
          <mxGeometry x="-135" y="1082.5" width="60" height="30" as="geometry" />
        </mxCell>
        <mxCell id="bdEAc6ZdpRl-mZ2Yg-5d-129" value="Reckognition / Reconocimeinto Facial" style="rounded=1;whiteSpace=wrap;html=1;" parent="1" vertex="1">
          <mxGeometry x="-355" y="1210" width="120" height="35" as="geometry" />
        </mxCell>
        <mxCell id="bdEAc6ZdpRl-mZ2Yg-5d-131" value="&lt;b&gt;&lt;font style=&quot;font-size: 18px;&quot;&gt;Diagrama C3 - Capa de Middleware- Sistema de Banca por Internet&lt;/font&gt;&lt;/b&gt;" style="text;html=1;align=center;verticalAlign=middle;whiteSpace=wrap;rounded=0;" parent="1" vertex="1">
          <mxGeometry x="50" y="1550" width="680" height="30" as="geometry" />
        </mxCell>
        <mxCell id="bdEAc6ZdpRl-mZ2Yg-5d-133" value="&lt;b&gt;APIs Sistema&lt;/b&gt;" style="text;html=1;align=center;verticalAlign=middle;whiteSpace=wrap;rounded=0;" parent="1" vertex="1">
          <mxGeometry x="680" y="1640" width="150" height="30" as="geometry" />
        </mxCell>
        <mxCell id="bdEAc6ZdpRl-mZ2Yg-5d-135" value="&lt;b&gt;APIs Experiencia o Canal o conocidas como BBF&lt;/b&gt;" style="text;html=1;align=center;verticalAlign=middle;whiteSpace=wrap;rounded=0;" parent="1" vertex="1">
          <mxGeometry x="-50" y="1660" width="150" height="30" as="geometry" />
        </mxCell>
        <mxCell id="bdEAc6ZdpRl-mZ2Yg-5d-137" value="&lt;b&gt;APIs Procesos&lt;/b&gt;" style="text;html=1;align=center;verticalAlign=middle;whiteSpace=wrap;rounded=0;" parent="1" vertex="1">
          <mxGeometry x="290" y="1650" width="150" height="30" as="geometry" />
        </mxCell>
        <mxCell id="bdEAc6ZdpRl-mZ2Yg-5d-138" value="Api Débito" style="rounded=1;whiteSpace=wrap;html=1;" parent="1" vertex="1">
          <mxGeometry x="719" y="1770" width="120" height="30" as="geometry" />
        </mxCell>
        <mxCell id="bdEAc6ZdpRl-mZ2Yg-5d-139" value="Api Crédito Interno" style="rounded=1;whiteSpace=wrap;html=1;" parent="1" vertex="1">
          <mxGeometry x="719" y="2000" width="120" height="30" as="geometry" />
        </mxCell>
        <mxCell id="bdEAc6ZdpRl-mZ2Yg-5d-140" value="Api Movimientos (POST)" style="rounded=1;whiteSpace=wrap;html=1;" parent="1" vertex="1">
          <mxGeometry x="719" y="1683.75" width="120" height="30" as="geometry" />
        </mxCell>
        <mxCell id="bdEAc6ZdpRl-mZ2Yg-5d-144" style="edgeStyle=orthogonalEdgeStyle;rounded=0;orthogonalLoop=1;jettySize=auto;html=1;" parent="1" source="bdEAc6ZdpRl-mZ2Yg-5d-141" target="bdEAc6ZdpRl-mZ2Yg-5d-142" edge="1">
          <mxGeometry relative="1" as="geometry" />
        </mxCell>
        <mxCell id="E_HUhhQDJXJuaxSUBeKh-26" style="edgeStyle=orthogonalEdgeStyle;rounded=0;orthogonalLoop=1;jettySize=auto;html=1;entryX=0;entryY=0.5;entryDx=0;entryDy=0;" edge="1" parent="1" source="bdEAc6ZdpRl-mZ2Yg-5d-141" target="bdEAc6ZdpRl-mZ2Yg-5d-143">
          <mxGeometry relative="1" as="geometry" />
        </mxCell>
        <mxCell id="bdEAc6ZdpRl-mZ2Yg-5d-141" value="Api Seguridad" style="rounded=1;whiteSpace=wrap;html=1;" parent="1" vertex="1">
          <mxGeometry x="-35" y="2030" width="120" height="30" as="geometry" />
        </mxCell>
        <mxCell id="bdEAc6ZdpRl-mZ2Yg-5d-142" value="Api Autenticacion" style="rounded=1;whiteSpace=wrap;html=1;" parent="1" vertex="1">
          <mxGeometry x="330" y="2020" width="120" height="30" as="geometry" />
        </mxCell>
        <mxCell id="bdEAc6ZdpRl-mZ2Yg-5d-143" value="Api Autorizacion" style="rounded=1;whiteSpace=wrap;html=1;" parent="1" vertex="1">
          <mxGeometry x="330" y="2060" width="120" height="30" as="geometry" />
        </mxCell>
        <mxCell id="bdEAc6ZdpRl-mZ2Yg-5d-152" value="Api Crédito terceros" style="rounded=1;whiteSpace=wrap;html=1;" parent="1" vertex="1">
          <mxGeometry x="719" y="2040" width="120" height="30" as="geometry" />
        </mxCell>
        <mxCell id="bdEAc6ZdpRl-mZ2Yg-5d-160" value="Domino de Cuentas" style="text;html=1;align=center;verticalAlign=middle;whiteSpace=wrap;rounded=0;" parent="1" vertex="1">
          <mxGeometry x="667.5" y="1660" width="175" height="30" as="geometry" />
        </mxCell>
        <mxCell id="bdEAc6ZdpRl-mZ2Yg-5d-161" value="Estandar BIAN" style="text;html=1;align=center;verticalAlign=middle;whiteSpace=wrap;rounded=0;" parent="1" vertex="1">
          <mxGeometry x="455" y="1620" width="210" height="30" as="geometry" />
        </mxCell>
        <mxCell id="bdEAc6ZdpRl-mZ2Yg-5d-162" value="Cuentas Escritura" style="shape=cylinder3;whiteSpace=wrap;html=1;boundedLbl=1;backgroundOutline=1;size=15;" parent="1" vertex="1">
          <mxGeometry x="885" y="1020" width="60" height="80" as="geometry" />
        </mxCell>
        <mxCell id="bdEAc6ZdpRl-mZ2Yg-5d-163" value="Clientes" style="shape=cylinder3;whiteSpace=wrap;html=1;boundedLbl=1;backgroundOutline=1;size=15;" parent="1" vertex="1">
          <mxGeometry x="1035" y="1020" width="60" height="80" as="geometry" />
        </mxCell>
        <mxCell id="bdEAc6ZdpRl-mZ2Yg-5d-166" value="Clientes" style="shape=cylinder3;whiteSpace=wrap;html=1;boundedLbl=1;backgroundOutline=1;size=15;" parent="1" vertex="1">
          <mxGeometry x="885" y="1169" width="60" height="80" as="geometry" />
        </mxCell>
        <mxCell id="bdEAc6ZdpRl-mZ2Yg-5d-167" value="Auditoria" style="shape=cylinder3;whiteSpace=wrap;html=1;boundedLbl=1;backgroundOutline=1;size=15;" parent="1" vertex="1">
          <mxGeometry x="1065" y="1165" width="60" height="80" as="geometry" />
        </mxCell>
        <mxCell id="bdEAc6ZdpRl-mZ2Yg-5d-168" value="Notificaciones" style="shape=cylinder3;whiteSpace=wrap;html=1;boundedLbl=1;backgroundOutline=1;size=15;" parent="1" vertex="1">
          <mxGeometry x="885" y="1300" width="60" height="80" as="geometry" />
        </mxCell>
        <mxCell id="bdEAc6ZdpRl-mZ2Yg-5d-171" value="Notificaciones" style="rounded=1;whiteSpace=wrap;html=1;" parent="1" vertex="1">
          <mxGeometry x="945" y="1320" width="100" height="20" as="geometry" />
        </mxCell>
        <mxCell id="bdEAc6ZdpRl-mZ2Yg-5d-172" value="Notificaciones" style="shape=cylinder3;whiteSpace=wrap;html=1;boundedLbl=1;backgroundOutline=1;size=15;" parent="1" vertex="1">
          <mxGeometry x="1255" y="1175" width="60" height="80" as="geometry" />
        </mxCell>
        <mxCell id="bdEAc6ZdpRl-mZ2Yg-5d-173" value="Gobierno de Datos" style="text;html=1;align=center;verticalAlign=middle;whiteSpace=wrap;rounded=0;" parent="1" vertex="1">
          <mxGeometry x="1405" y="1104.5" width="115" height="30" as="geometry" />
        </mxCell>
        <mxCell id="bdEAc6ZdpRl-mZ2Yg-5d-175" value="Cluster de Base Datos" style="text;html=1;align=center;verticalAlign=middle;whiteSpace=wrap;rounded=0;fontStyle=1" parent="1" vertex="1">
          <mxGeometry x="1030" y="990" width="130" height="30" as="geometry" />
        </mxCell>
        <mxCell id="bdEAc6ZdpRl-mZ2Yg-5d-177" value="&lt;h1 style=&quot;margin-top: 0px;&quot;&gt;Patron SAGA&lt;/h1&gt;&lt;p&gt;Me permite oruqestación y coreografia para una comunicacion sincrona y asincrona&lt;/p&gt;" style="text;html=1;whiteSpace=wrap;overflow=hidden;rounded=0;" parent="1" vertex="1">
          <mxGeometry x="50" y="2190" width="180" height="120" as="geometry" />
        </mxCell>
        <mxCell id="bdEAc6ZdpRl-mZ2Yg-5d-178" value="&lt;h1 style=&quot;margin-top: 0px;&quot;&gt;Patron Microservicios&lt;/h1&gt;&lt;p&gt;Me permite segmentar la logica en componentes pequeños con una sola responsabilida. Uso de Contenedores en Kubernetes.&lt;/p&gt;" style="text;html=1;whiteSpace=wrap;overflow=hidden;rounded=0;" parent="1" vertex="1">
          <mxGeometry x="-160" y="2180" width="180" height="120" as="geometry" />
        </mxCell>
        <mxCell id="bdEAc6ZdpRl-mZ2Yg-5d-179" value="&lt;h1 style=&quot;margin-top: 0px;&quot;&gt;&lt;span style=&quot;background-color: transparent; color: light-dark(rgb(0, 0, 0), rgb(255, 255, 255));&quot;&gt;Patron CQRS&amp;nbsp;&lt;/span&gt;&lt;/h1&gt;&lt;h1 style=&quot;margin-top: 0px;&quot;&gt;&lt;span style=&quot;font-size: 12px; font-weight: 400;&quot;&gt;Para segmentar los accesos a la base de datos que sean solo de lectura o escritura.&lt;/span&gt;&lt;/h1&gt;" style="text;html=1;whiteSpace=wrap;overflow=hidden;rounded=0;" parent="1" vertex="1">
          <mxGeometry x="1380" y="1219" width="180" height="151" as="geometry" />
        </mxCell>
        <mxCell id="E_HUhhQDJXJuaxSUBeKh-42" style="edgeStyle=orthogonalEdgeStyle;rounded=0;orthogonalLoop=1;jettySize=auto;html=1;entryX=0;entryY=0.5;entryDx=0;entryDy=0;" edge="1" parent="1" source="bdEAc6ZdpRl-mZ2Yg-5d-180" target="E_HUhhQDJXJuaxSUBeKh-41">
          <mxGeometry relative="1" as="geometry" />
        </mxCell>
        <mxCell id="bdEAc6ZdpRl-mZ2Yg-5d-180" value="Contenedores Core Bancario" style="rounded=1;whiteSpace=wrap;html=1;" parent="1" vertex="1">
          <mxGeometry x="472.5" y="1050" width="117.5" height="30" as="geometry" />
        </mxCell>
        <mxCell id="bdEAc6ZdpRl-mZ2Yg-5d-181" value="Api Manager" style="rounded=1;whiteSpace=wrap;html=1;" parent="1" vertex="1">
          <mxGeometry x="335" y="1132.5" width="100" height="30" as="geometry" />
        </mxCell>
        <mxCell id="bdEAc6ZdpRl-mZ2Yg-5d-185" value="Cognito" style="rounded=1;whiteSpace=wrap;html=1;" parent="1" vertex="1">
          <mxGeometry x="330" y="1025" width="100" height="30" as="geometry" />
        </mxCell>
        <mxCell id="bdEAc6ZdpRl-mZ2Yg-5d-188" value="Cluster EKS - Fargate" style="text;html=1;align=center;verticalAlign=middle;whiteSpace=wrap;rounded=0;" parent="1" vertex="1">
          <mxGeometry x="480" y="1025" width="120" height="30" as="geometry" />
        </mxCell>
        <mxCell id="bdEAc6ZdpRl-mZ2Yg-5d-191" style="edgeStyle=orthogonalEdgeStyle;rounded=0;orthogonalLoop=1;jettySize=auto;html=1;" parent="1" source="bdEAc6ZdpRl-mZ2Yg-5d-189" target="bdEAc6ZdpRl-mZ2Yg-5d-97" edge="1">
          <mxGeometry relative="1" as="geometry" />
        </mxCell>
        <mxCell id="bdEAc6ZdpRl-mZ2Yg-5d-189" value="ELB" style="rounded=1;whiteSpace=wrap;html=1;" parent="1" vertex="1">
          <mxGeometry x="180" y="1074" width="100" height="32.5" as="geometry" />
        </mxCell>
        <mxCell id="bdEAc6ZdpRl-mZ2Yg-5d-194" value="" style="rounded=1;whiteSpace=wrap;html=1;" parent="1" vertex="1">
          <mxGeometry x="1580" y="932" width="700" height="500" as="geometry" />
        </mxCell>
        <mxCell id="bdEAc6ZdpRl-mZ2Yg-5d-196" value="&lt;h1 style=&quot;margin-top: 0px;&quot;&gt;DRP&lt;/h1&gt;&lt;p&gt;Contingencia Activo - Activo en dos regiones independiente&lt;/p&gt;" style="text;html=1;whiteSpace=wrap;overflow=hidden;rounded=0;" parent="1" vertex="1">
          <mxGeometry x="1810" y="828" width="180" height="120" as="geometry" />
        </mxCell>
        <mxCell id="bdEAc6ZdpRl-mZ2Yg-5d-197" value="&lt;h1 style=&quot;margin-top: 0px;&quot;&gt;Zonas de Disponibilidad&lt;/h1&gt;&lt;p&gt;Manejo de 3 Zonas de Disponibilidad y Tolerancia a Fallos&lt;/p&gt;" style="text;html=1;whiteSpace=wrap;overflow=hidden;rounded=0;" parent="1" vertex="1">
          <mxGeometry x="-500" y="1290" width="250" height="120" as="geometry" />
        </mxCell>
        <mxCell id="bdEAc6ZdpRl-mZ2Yg-5d-198" value="&lt;h1 style=&quot;margin-top: 0px;&quot;&gt;Región Principal&lt;/h1&gt;&lt;p&gt;Región Principal en Virgina para reducir la latencia y por temas de costos.&lt;/p&gt;" style="text;html=1;whiteSpace=wrap;overflow=hidden;rounded=0;" parent="1" vertex="1">
          <mxGeometry x="-490" y="926" width="230" height="120" as="geometry" />
        </mxCell>
        <mxCell id="bdEAc6ZdpRl-mZ2Yg-5d-199" value="&lt;h1 style=&quot;margin-top: 0px;&quot;&gt;Zonas de Disponibilidad&lt;/h1&gt;&lt;p&gt;Manejo de 3 Zonas de Disponibilidad y Tolerancia a Fallos&lt;/p&gt;" style="text;html=1;whiteSpace=wrap;overflow=hidden;rounded=0;" parent="1" vertex="1">
          <mxGeometry x="1630" y="1312" width="250" height="120" as="geometry" />
        </mxCell>
        <mxCell id="bdEAc6ZdpRl-mZ2Yg-5d-200" value="&lt;h1 style=&quot;margin-top: 0px;&quot;&gt;Región Secuendaria&lt;/h1&gt;&lt;p&gt;Región Principal en Ohaio para reducir la latencia y por temas de costos.&lt;/p&gt;" style="text;html=1;whiteSpace=wrap;overflow=hidden;rounded=0;" parent="1" vertex="1">
          <mxGeometry x="1640" y="948" width="310" height="120" as="geometry" />
        </mxCell>
        <mxCell id="bdEAc6ZdpRl-mZ2Yg-5d-201" value="&lt;h1 style=&quot;margin-top: 0px;&quot;&gt;Componentes&lt;/h1&gt;&lt;p&gt;En este espacio se repiten los mismos componentes de aplicación, datos, seguridad y red&lt;/p&gt;" style="text;html=1;whiteSpace=wrap;overflow=hidden;rounded=0;" parent="1" vertex="1">
          <mxGeometry x="1980" y="1117" width="180" height="120" as="geometry" />
        </mxCell>
        <mxCell id="bdEAc6ZdpRl-mZ2Yg-5d-202" value="&lt;h1 style=&quot;margin-top: 0px;&quot;&gt;Solución&lt;/h1&gt;&lt;p&gt;Se considera la solución Nativa de Nube, basada en AWS, no se mencionan componentes On-Premise.&lt;/p&gt;" style="text;html=1;whiteSpace=wrap;overflow=hidden;rounded=0;" parent="1" vertex="1">
          <mxGeometry x="-509" y="850" width="614" height="120" as="geometry" />
        </mxCell>
        <mxCell id="bdEAc6ZdpRl-mZ2Yg-5d-203" value="LDP" style="rounded=1;whiteSpace=wrap;html=1;" parent="1" vertex="1">
          <mxGeometry x="-355" y="1155" width="120" height="35" as="geometry" />
        </mxCell>
        <mxCell id="bdEAc6ZdpRl-mZ2Yg-5d-208" style="edgeStyle=orthogonalEdgeStyle;rounded=0;orthogonalLoop=1;jettySize=auto;html=1;entryX=0;entryY=0.5;entryDx=0;entryDy=0;" parent="1" source="bdEAc6ZdpRl-mZ2Yg-5d-207" target="bdEAc6ZdpRl-mZ2Yg-5d-104" edge="1">
          <mxGeometry relative="1" as="geometry" />
        </mxCell>
        <mxCell id="bdEAc6ZdpRl-mZ2Yg-5d-207" value="CloudFront SPA" style="rounded=1;whiteSpace=wrap;html=1;" parent="1" vertex="1">
          <mxGeometry x="-150" y="1180" width="100" height="30" as="geometry" />
        </mxCell>
        <mxCell id="bdEAc6ZdpRl-mZ2Yg-5d-209" value="&lt;h1 style=&quot;margin-top: 0px;&quot;&gt;DevSecOps&lt;/h1&gt;&lt;p&gt;Despliegue Continuo y Pruebas automatizadas para los microservicios&lt;/p&gt;" style="text;html=1;whiteSpace=wrap;overflow=hidden;rounded=0;" parent="1" vertex="1">
          <mxGeometry x="450" y="2190" width="180" height="120" as="geometry" />
        </mxCell>
        <mxCell id="bdEAc6ZdpRl-mZ2Yg-5d-213" style="edgeStyle=orthogonalEdgeStyle;rounded=0;orthogonalLoop=1;jettySize=auto;html=1;entryX=0.5;entryY=0;entryDx=0;entryDy=0;" parent="1" source="bdEAc6ZdpRl-mZ2Yg-5d-210" target="bdEAc6ZdpRl-mZ2Yg-5d-211" edge="1">
          <mxGeometry relative="1" as="geometry" />
        </mxCell>
        <mxCell id="bdEAc6ZdpRl-mZ2Yg-5d-210" value="Route53/DNS" style="rounded=1;whiteSpace=wrap;html=1;" parent="1" vertex="1">
          <mxGeometry x="-580" y="1040" width="120" height="26" as="geometry" />
        </mxCell>
        <mxCell id="bdEAc6ZdpRl-mZ2Yg-5d-211" value="WAF" style="rounded=1;whiteSpace=wrap;html=1;" parent="1" vertex="1">
          <mxGeometry x="-560" y="1106.5" width="120" height="26" as="geometry" />
        </mxCell>
        <mxCell id="bdEAc6ZdpRl-mZ2Yg-5d-215" style="edgeStyle=orthogonalEdgeStyle;rounded=0;orthogonalLoop=1;jettySize=auto;html=1;entryX=0.002;entryY=0.573;entryDx=0;entryDy=0;entryPerimeter=0;" parent="1" source="bdEAc6ZdpRl-mZ2Yg-5d-211" target="bdEAc6ZdpRl-mZ2Yg-5d-122" edge="1">
          <mxGeometry relative="1" as="geometry" />
        </mxCell>
        <mxCell id="bdEAc6ZdpRl-mZ2Yg-5d-216" value="&lt;h1 style=&quot;margin-top: 0px;&quot;&gt;Bus Eventos&lt;/h1&gt;&lt;h1 style=&quot;margin-top: 0px;&quot;&gt;&lt;span style=&quot;background-color: transparent; color: light-dark(rgb(0, 0, 0), rgb(255, 255, 255)); font-size: 12px; font-weight: normal;&quot;&gt;&amp;nbsp;Desacoplar la interacción entre los microservicios y manejar invocaciones asincronas&lt;/span&gt;&lt;/h1&gt;" style="text;html=1;whiteSpace=wrap;overflow=hidden;rounded=0;" parent="1" vertex="1">
          <mxGeometry x="250" y="2190" width="180" height="120" as="geometry" />
        </mxCell>
        <mxCell id="bdEAc6ZdpRl-mZ2Yg-5d-217" value="&lt;h1 style=&quot;margin-top: 0px;&quot;&gt;Observabilidad&lt;/h1&gt;&lt;p&gt;Es necesario tener log y trazas para dar seguimiento a los microservicios y eventos&lt;/p&gt;" style="text;html=1;whiteSpace=wrap;overflow=hidden;rounded=0;" parent="1" vertex="1">
          <mxGeometry x="650" y="2190" width="180" height="120" as="geometry" />
        </mxCell>
        <mxCell id="bdEAc6ZdpRl-mZ2Yg-5d-218" value="CloudWatch - LOG" style="rounded=1;whiteSpace=wrap;html=1;" parent="1" vertex="1">
          <mxGeometry x="-180" y="1390" width="120" height="20" as="geometry" />
        </mxCell>
        <mxCell id="bdEAc6ZdpRl-mZ2Yg-5d-219" value="X-RAY / Trazas" style="rounded=1;whiteSpace=wrap;html=1;" parent="1" vertex="1">
          <mxGeometry x="-40" y="1390" width="120" height="20" as="geometry" />
        </mxCell>
        <mxCell id="bdEAc6ZdpRl-mZ2Yg-5d-220" value="Observabilidad" style="text;html=1;align=center;verticalAlign=middle;whiteSpace=wrap;rounded=0;" parent="1" vertex="1">
          <mxGeometry x="-80" y="1355" width="60" height="30" as="geometry" />
        </mxCell>
        <mxCell id="bdEAc6ZdpRl-mZ2Yg-5d-221" value="&amp;nbsp;Bucket S3" style="rounded=1;whiteSpace=wrap;html=1;" parent="1" vertex="1">
          <mxGeometry x="10" y="1020" width="100" height="30" as="geometry" />
        </mxCell>
        <mxCell id="bdEAc6ZdpRl-mZ2Yg-5d-223" value="Cifrado de Canal TLS 1.3 HTTPS" style="text;html=1;align=center;verticalAlign=middle;whiteSpace=wrap;rounded=0;" parent="1" vertex="1">
          <mxGeometry x="167" y="1160" width="153" height="30" as="geometry" />
        </mxCell>
        <mxCell id="bdEAc6ZdpRl-mZ2Yg-5d-226" value="En el Grafico de Abajo se Explica y visualiza cada componente" style="text;html=1;align=center;verticalAlign=middle;whiteSpace=wrap;rounded=0;" parent="1" vertex="1">
          <mxGeometry x="353.5" y="1219" width="343" height="30" as="geometry" />
        </mxCell>
        <mxCell id="bdEAc6ZdpRl-mZ2Yg-5d-227" value="Certificado Domino" style="text;html=1;align=center;verticalAlign=middle;whiteSpace=wrap;rounded=0;" parent="1" vertex="1">
          <mxGeometry x="-43" y="1235" width="153" height="30" as="geometry" />
        </mxCell>
        <mxCell id="E_HUhhQDJXJuaxSUBeKh-2" value="&lt;h1 style=&quot;margin-top: 0px;&quot;&gt;Orquestación&lt;/h1&gt;&lt;p&gt;Los Apis de Canal (Externos) y Orquestan invociona a los APIS de Procesos (Internos)&lt;/p&gt;" style="text;html=1;whiteSpace=wrap;overflow=hidden;rounded=0;" vertex="1" parent="1">
          <mxGeometry x="120" y="2090" width="305" height="120" as="geometry" />
        </mxCell>
        <mxCell id="E_HUhhQDJXJuaxSUBeKh-12" style="edgeStyle=orthogonalEdgeStyle;rounded=0;orthogonalLoop=1;jettySize=auto;html=1;entryX=0;entryY=0.5;entryDx=0;entryDy=0;dashed=1;dashPattern=8 8;" edge="1" parent="1" source="bdEAc6ZdpRl-mZ2Yg-5d-154" target="E_HUhhQDJXJuaxSUBeKh-6">
          <mxGeometry relative="1" as="geometry">
            <Array as="points">
              <mxPoint x="600" y="1895" />
              <mxPoint x="600" y="1975" />
            </Array>
          </mxGeometry>
        </mxCell>
        <mxCell id="E_HUhhQDJXJuaxSUBeKh-13" style="edgeStyle=orthogonalEdgeStyle;rounded=0;orthogonalLoop=1;jettySize=auto;html=1;entryX=0;entryY=0.5;entryDx=0;entryDy=0;dashed=1;dashPattern=8 8;" edge="1" parent="1" source="E_HUhhQDJXJuaxSUBeKh-4" target="bdEAc6ZdpRl-mZ2Yg-5d-154">
          <mxGeometry relative="1" as="geometry">
            <Array as="points">
              <mxPoint x="600" y="1804" />
              <mxPoint x="600" y="1895" />
            </Array>
          </mxGeometry>
        </mxCell>
        <mxCell id="E_HUhhQDJXJuaxSUBeKh-28" style="edgeStyle=orthogonalEdgeStyle;rounded=0;orthogonalLoop=1;jettySize=auto;html=1;" edge="1" parent="1" source="E_HUhhQDJXJuaxSUBeKh-4" target="E_HUhhQDJXJuaxSUBeKh-9">
          <mxGeometry relative="1" as="geometry" />
        </mxCell>
        <mxCell id="E_HUhhQDJXJuaxSUBeKh-4" value="Bus Eventos" style="rounded=1;whiteSpace=wrap;html=1;" vertex="1" parent="1">
          <mxGeometry x="505" y="1765" width="65" height="77.5" as="geometry" />
        </mxCell>
        <mxCell id="E_HUhhQDJXJuaxSUBeKh-6" value="Api Notificaciones Externas" style="rounded=1;whiteSpace=wrap;html=1;" vertex="1" parent="1">
          <mxGeometry x="721" y="1960" width="120" height="30" as="geometry" />
        </mxCell>
        <mxCell id="E_HUhhQDJXJuaxSUBeKh-9" value="Api Notificaciones Internas" style="rounded=1;whiteSpace=wrap;html=1;" vertex="1" parent="1">
          <mxGeometry x="721" y="1812.5" width="120" height="30" as="geometry" />
        </mxCell>
        <mxCell id="E_HUhhQDJXJuaxSUBeKh-10" style="edgeStyle=orthogonalEdgeStyle;rounded=0;orthogonalLoop=1;jettySize=auto;html=1;entryX=0;entryY=0.5;entryDx=0;entryDy=0;" edge="1" parent="1" source="E_HUhhQDJXJuaxSUBeKh-4" target="bdEAc6ZdpRl-mZ2Yg-5d-138">
          <mxGeometry relative="1" as="geometry" />
        </mxCell>
        <mxCell id="E_HUhhQDJXJuaxSUBeKh-14" value="Evento 2" style="text;html=1;align=center;verticalAlign=middle;whiteSpace=wrap;rounded=0;" vertex="1" parent="1">
          <mxGeometry x="620" y="1865" width="60" height="30" as="geometry" />
        </mxCell>
        <mxCell id="E_HUhhQDJXJuaxSUBeKh-18" value="Evento 1" style="text;html=1;align=center;verticalAlign=middle;whiteSpace=wrap;rounded=0;" vertex="1" parent="1">
          <mxGeometry x="645" y="1760" width="60" height="30" as="geometry" />
        </mxCell>
        <mxCell id="bdEAc6ZdpRl-mZ2Yg-5d-154" value="Api Crédito" style="rounded=1;whiteSpace=wrap;html=1;" parent="1" vertex="1">
          <mxGeometry x="725" y="1880" width="120" height="30" as="geometry" />
        </mxCell>
        <mxCell id="E_HUhhQDJXJuaxSUBeKh-20" value="Api Auditoria" style="rounded=1;whiteSpace=wrap;html=1;" vertex="1" parent="1">
          <mxGeometry x="722.5" y="1920" width="120" height="30" as="geometry" />
        </mxCell>
        <mxCell id="E_HUhhQDJXJuaxSUBeKh-22" style="edgeStyle=orthogonalEdgeStyle;rounded=0;orthogonalLoop=1;jettySize=auto;html=1;entryX=0;entryY=0.75;entryDx=0;entryDy=0;dashed=1;dashPattern=8 8;exitX=1;exitY=0.5;exitDx=0;exitDy=0;" edge="1" parent="1" source="E_HUhhQDJXJuaxSUBeKh-4" target="E_HUhhQDJXJuaxSUBeKh-20">
          <mxGeometry relative="1" as="geometry">
            <mxPoint x="580" y="1814" as="sourcePoint" />
            <mxPoint x="735" y="1905" as="targetPoint" />
            <Array as="points">
              <mxPoint x="570" y="1810" />
              <mxPoint x="600" y="1810" />
              <mxPoint x="600" y="1943" />
              <mxPoint x="680" y="1943" />
            </Array>
          </mxGeometry>
        </mxCell>
        <mxCell id="E_HUhhQDJXJuaxSUBeKh-25" value="&lt;h1 style=&quot;margin-top: 0px;&quot;&gt;Coreografia&lt;/h1&gt;&lt;p&gt;Los Apis de Procesos son productores de eventos y los&amp;nbsp; APIS de Sistema son Consumidores para Credito, Auditoria y Notificaciones&lt;/p&gt;" style="text;html=1;whiteSpace=wrap;overflow=hidden;rounded=0;" vertex="1" parent="1">
          <mxGeometry x="487.5" y="2080" width="282.5" height="120" as="geometry" />
        </mxCell>
        <mxCell id="E_HUhhQDJXJuaxSUBeKh-27" value="Topico1: Propias&lt;div&gt;Topico2: Interbancarias&lt;/div&gt;" style="text;html=1;align=center;verticalAlign=middle;whiteSpace=wrap;rounded=0;" vertex="1" parent="1">
          <mxGeometry x="472.5" y="1852.5" width="140" height="30" as="geometry" />
        </mxCell>
        <mxCell id="E_HUhhQDJXJuaxSUBeKh-29" value="Estandar Api Led Connectivity" style="text;html=1;align=center;verticalAlign=middle;whiteSpace=wrap;rounded=0;" vertex="1" parent="1">
          <mxGeometry x="115" y="1625" width="210" height="30" as="geometry" />
        </mxCell>
        <mxCell id="E_HUhhQDJXJuaxSUBeKh-30" value="&lt;h1 style=&quot;margin-top: 0px;&quot;&gt;&lt;span style=&quot;background-color: transparent; color: light-dark(rgb(0, 0, 0), rgb(255, 255, 255));&quot;&gt;Cluster EKS&amp;nbsp;&lt;/span&gt;&lt;/h1&gt;&lt;h1 style=&quot;margin-top: 0px;&quot;&gt;&lt;span style=&quot;background-color: transparent; color: light-dark(rgb(0, 0, 0), rgb(255, 255, 255)); font-size: 12px; font-weight: normal;&quot;&gt;Administrador de Contenedores en Kubernetes donde se Desplegaran los microservicios en Java con Sprintboot 3.4.2&lt;/span&gt;&lt;/h1&gt;" style="text;html=1;whiteSpace=wrap;overflow=hidden;rounded=0;" vertex="1" parent="1">
          <mxGeometry x="-560" y="1560" width="350" height="120" as="geometry" />
        </mxCell>
        <mxCell id="E_HUhhQDJXJuaxSUBeKh-31" value="&lt;h1 style=&quot;margin-top: 0px;&quot;&gt;MSK kafka&lt;/h1&gt;&lt;h1 style=&quot;margin-top: 0px;&quot;&gt;&lt;span style=&quot;background-color: transparent; color: light-dark(rgb(0, 0, 0), rgb(255, 255, 255)); font-size: 12px; font-weight: normal;&quot;&gt;Bus de Eventos basado en Kafka para el desacoplamiento e invocaciones asincronas.&lt;/span&gt;&lt;/h1&gt;" style="text;html=1;whiteSpace=wrap;overflow=hidden;rounded=0;" vertex="1" parent="1">
          <mxGeometry x="-570" y="1680" width="350" height="120" as="geometry" />
        </mxCell>
        <mxCell id="E_HUhhQDJXJuaxSUBeKh-32" value="&lt;h1 style=&quot;margin-top: 0px;&quot;&gt;Api Gateway&lt;/h1&gt;&lt;h1 style=&quot;margin-top: 0px;&quot;&gt;&lt;span style=&quot;background-color: transparent; color: light-dark(rgb(0, 0, 0), rgb(255, 255, 255)); font-size: 12px; font-weight: normal;&quot;&gt;Disponibiliza los API para la integración con el frontend de canales movil y web&lt;/span&gt;&lt;/h1&gt;" style="text;html=1;whiteSpace=wrap;overflow=hidden;rounded=0;" vertex="1" parent="1">
          <mxGeometry x="-570" y="1795" width="350" height="120" as="geometry" />
        </mxCell>
        <mxCell id="E_HUhhQDJXJuaxSUBeKh-33" value="&lt;h1 style=&quot;margin-top: 0px;&quot;&gt;SQS Colas&lt;/h1&gt;&lt;h1 style=&quot;margin-top: 0px;&quot;&gt;&lt;span style=&quot;background-color: transparent; color: light-dark(rgb(0, 0, 0), rgb(255, 255, 255)); font-size: 12px; font-weight: normal;&quot;&gt;Utilizado para emcolar peticiones a las API del Core Bancario que permita despachar los mensajes en caso de encolamiento de transaccionalidad.&lt;/span&gt;&lt;/h1&gt;" style="text;html=1;whiteSpace=wrap;overflow=hidden;rounded=0;" vertex="1" parent="1">
          <mxGeometry x="-570" y="1920" width="350" height="120" as="geometry" />
        </mxCell>
        <mxCell id="E_HUhhQDJXJuaxSUBeKh-36" style="edgeStyle=orthogonalEdgeStyle;rounded=0;orthogonalLoop=1;jettySize=auto;html=1;entryX=0;entryY=0.5;entryDx=0;entryDy=0;" edge="1" parent="1" source="E_HUhhQDJXJuaxSUBeKh-34" target="bdEAc6ZdpRl-mZ2Yg-5d-140">
          <mxGeometry relative="1" as="geometry" />
        </mxCell>
        <mxCell id="E_HUhhQDJXJuaxSUBeKh-39" style="edgeStyle=orthogonalEdgeStyle;rounded=0;orthogonalLoop=1;jettySize=auto;html=1;entryX=0;entryY=0.5;entryDx=0;entryDy=0;" edge="1" parent="1" source="E_HUhhQDJXJuaxSUBeKh-34" target="E_HUhhQDJXJuaxSUBeKh-38">
          <mxGeometry relative="1" as="geometry" />
        </mxCell>
        <mxCell id="E_HUhhQDJXJuaxSUBeKh-34" value="Colas" style="rounded=1;whiteSpace=wrap;html=1;" vertex="1" parent="1">
          <mxGeometry x="520" y="1660" width="65" height="77.5" as="geometry" />
        </mxCell>
        <mxCell id="E_HUhhQDJXJuaxSUBeKh-38" value="Api Movimientos (GET)" style="rounded=1;whiteSpace=wrap;html=1;" vertex="1" parent="1">
          <mxGeometry x="719" y="1720" width="120" height="30" as="geometry" />
        </mxCell>
        <mxCell id="E_HUhhQDJXJuaxSUBeKh-40" value="MQ REQ: MOV-REQ&lt;div&gt;MQ RESP: MOV-RESP&lt;/div&gt;" style="text;html=1;align=center;verticalAlign=middle;whiteSpace=wrap;rounded=0;" vertex="1" parent="1">
          <mxGeometry x="510" y="1735" width="140" height="30" as="geometry" />
        </mxCell>
        <mxCell id="E_HUhhQDJXJuaxSUBeKh-41" value="SNS" style="rounded=1;whiteSpace=wrap;html=1;" vertex="1" parent="1">
          <mxGeometry x="630" y="1042.5" width="100" height="30" as="geometry" />
        </mxCell>
        <mxCell id="E_HUhhQDJXJuaxSUBeKh-43" value="MSK" style="rounded=1;whiteSpace=wrap;html=1;" vertex="1" parent="1">
          <mxGeometry x="540" y="1162.5" width="100" height="30" as="geometry" />
        </mxCell>
        <mxCell id="E_HUhhQDJXJuaxSUBeKh-45" value="Certificado Cifrado de Mensaje" style="text;html=1;align=center;verticalAlign=middle;whiteSpace=wrap;rounded=0;" vertex="1" parent="1">
          <mxGeometry x="420" y="1265" width="153" height="30" as="geometry" />
        </mxCell>
        <mxCell id="E_HUhhQDJXJuaxSUBeKh-47" value="SQS" style="rounded=1;whiteSpace=wrap;html=1;" vertex="1" parent="1">
          <mxGeometry x="625" y="1102.5" width="100" height="30" as="geometry" />
        </mxCell>
        <mxCell id="E_HUhhQDJXJuaxSUBeKh-50" value="&lt;font style=&quot;font-size: 10px;&quot;&gt;2. Oauth Autorize&lt;/font&gt;" style="text;html=1;align=center;verticalAlign=middle;whiteSpace=wrap;rounded=0;" vertex="1" parent="1">
          <mxGeometry x="-280" y="1012.5" width="120" height="12.5" as="geometry" />
        </mxCell>
        <mxCell id="E_HUhhQDJXJuaxSUBeKh-51" value="&lt;font style=&quot;font-size: 10px;&quot;&gt;1. Genera Verificador&lt;/font&gt;" style="text;html=1;align=center;verticalAlign=middle;whiteSpace=wrap;rounded=0;" vertex="1" parent="1">
          <mxGeometry x="-155" y="1150" width="120" height="30" as="geometry" />
        </mxCell>
        <mxCell id="E_HUhhQDJXJuaxSUBeKh-52" value="&lt;font style=&quot;font-size: 10px;&quot;&gt;1. Genera Verificador&lt;/font&gt;" style="text;html=1;align=center;verticalAlign=middle;whiteSpace=wrap;rounded=0;" vertex="1" parent="1">
          <mxGeometry x="-155" y="1002.5" width="120" height="12.5" as="geometry" />
        </mxCell>
        <mxCell id="E_HUhhQDJXJuaxSUBeKh-54" value="&lt;font style=&quot;font-size: 10px;&quot;&gt;3. Token SAML&lt;/font&gt;" style="text;html=1;align=center;verticalAlign=middle;whiteSpace=wrap;rounded=0;" vertex="1" parent="1">
          <mxGeometry x="-310" y="1112.5" width="120" height="30" as="geometry" />
        </mxCell>
        <mxCell id="bdEAc6ZdpRl-mZ2Yg-5d-120" style="edgeStyle=orthogonalEdgeStyle;rounded=0;orthogonalLoop=1;jettySize=auto;html=1;entryX=0;entryY=0.5;entryDx=0;entryDy=0;exitX=0.544;exitY=-0.02;exitDx=0;exitDy=0;exitPerimeter=0;" parent="1" target="bdEAc6ZdpRl-mZ2Yg-5d-102" edge="1">
          <mxGeometry relative="1" as="geometry">
            <mxPoint x="-299.72" y="1079.75" as="sourcePoint" />
            <mxPoint x="-155" y="1025.25" as="targetPoint" />
            <Array as="points">
              <mxPoint x="-300" y="1078" />
              <mxPoint x="-300" y="1078" />
              <mxPoint x="-300" y="1028" />
            </Array>
          </mxGeometry>
        </mxCell>
        <mxCell id="E_HUhhQDJXJuaxSUBeKh-56" style="edgeStyle=orthogonalEdgeStyle;rounded=0;orthogonalLoop=1;jettySize=auto;html=1;entryX=1;entryY=0.424;entryDx=0;entryDy=0;entryPerimeter=0;startArrow=classic;startFill=1;" edge="1" parent="1" source="bdEAc6ZdpRl-mZ2Yg-5d-102" target="bdEAc6ZdpRl-mZ2Yg-5d-124">
          <mxGeometry relative="1" as="geometry">
            <Array as="points">
              <mxPoint x="-100" y="1060" />
              <mxPoint x="-210" y="1060" />
              <mxPoint x="-210" y="1093" />
            </Array>
          </mxGeometry>
        </mxCell>
        <mxCell id="E_HUhhQDJXJuaxSUBeKh-59" value="&lt;font style=&quot;font-size: 10px;&quot;&gt;4. OauthToken&lt;/font&gt;" style="text;html=1;align=center;verticalAlign=middle;whiteSpace=wrap;rounded=0;" vertex="1" parent="1">
          <mxGeometry x="-230" y="1042.5" width="120" height="12.5" as="geometry" />
        </mxCell>
        <mxCell id="E_HUhhQDJXJuaxSUBeKh-60" value="&lt;font style=&quot;font-size: 6px;&quot;&gt;5. Con el token el SPA puede hacer invocaciones previo a validar el token en Cognito&lt;/font&gt;&lt;font style=&quot;font-size: 10px;&quot;&gt;&amp;nbsp;&lt;/font&gt;" style="text;html=1;align=center;verticalAlign=middle;whiteSpace=wrap;rounded=0;" vertex="1" parent="1">
          <mxGeometry x="-165" y="1210" width="150" height="30" as="geometry" />
        </mxCell>
        <mxCell id="E_HUhhQDJXJuaxSUBeKh-61" value="KMS - AES 256" style="rounded=1;whiteSpace=wrap;html=1;" vertex="1" parent="1">
          <mxGeometry x="-26.5" y="1265" width="120" height="23" as="geometry" />
        </mxCell>
        <mxCell id="E_HUhhQDJXJuaxSUBeKh-62" value="KMS - AES 256" style="rounded=1;whiteSpace=wrap;html=1;" vertex="1" parent="1">
          <mxGeometry x="450" y="1295" width="120" height="23" as="geometry" />
        </mxCell>
        <mxCell id="E_HUhhQDJXJuaxSUBeKh-63" value="Secret Manager&lt;div&gt;Llaves de BD y Otros&lt;/div&gt;" style="rounded=1;whiteSpace=wrap;html=1;" vertex="1" parent="1">
          <mxGeometry x="425" y="1175" width="100" height="45" as="geometry" />
        </mxCell>
        <mxCell id="E_HUhhQDJXJuaxSUBeKh-65" value="API REST /Protocolo HTTP" style="text;html=1;align=center;verticalAlign=middle;whiteSpace=wrap;rounded=0;" vertex="1" parent="1">
          <mxGeometry x="-26.5" y="2080" width="110" height="30" as="geometry" />
        </mxCell>
        <mxCell id="E_HUhhQDJXJuaxSUBeKh-66" value="&lt;h1 style=&quot;margin-top: 0px;&quot;&gt;Patron Backend For Frontend&lt;/h1&gt;&lt;p&gt;Backend para orquestar llamadas del Frontend y permite su abstracción hacia el backend&lt;/p&gt;" style="text;html=1;whiteSpace=wrap;overflow=hidden;rounded=0;" vertex="1" parent="1">
          <mxGeometry x="-360" y="2180" width="180" height="120" as="geometry" />
        </mxCell>
        <mxCell id="E_HUhhQDJXJuaxSUBeKh-67" value="&lt;h1 style=&quot;margin-top: 0px;&quot;&gt;Arquitectura Orientada a Dominios&lt;/h1&gt;&lt;p&gt;Segementaremos los Servicios o Microservicios de acuerdo a un domino por ejemplo el domino de Cuentas, Clientes&lt;/p&gt;" style="text;html=1;whiteSpace=wrap;overflow=hidden;rounded=0;" vertex="1" parent="1">
          <mxGeometry x="955" y="1900" width="345" height="190" as="geometry" />
        </mxCell>
        <mxCell id="E_HUhhQDJXJuaxSUBeKh-68" value="&lt;h1 style=&quot;margin-top: 0px;&quot;&gt;Api led Connectivity&lt;/h1&gt;&lt;p&gt;Permite segementar y dar responsabilidades a cada API de acuerdo a su naturaleza, divide en API experiencia, procesos y Sitemas&lt;/p&gt;" style="text;html=1;whiteSpace=wrap;overflow=hidden;rounded=0;" vertex="1" parent="1">
          <mxGeometry x="970" y="1500" width="340" height="155" as="geometry" />
        </mxCell>
        <mxCell id="E_HUhhQDJXJuaxSUBeKh-69" value="&lt;h1 style=&quot;margin-top: 0px;&quot;&gt;BIAN&lt;/h1&gt;&lt;p&gt;De acuerdo a&amp;nbsp; las capacidades del negocio se modelan los Dominos de Servicios, junto con sus APIs y metodos. Estandar Bancario&lt;/p&gt;" style="text;html=1;whiteSpace=wrap;overflow=hidden;rounded=0;" vertex="1" parent="1">
          <mxGeometry x="975" y="1605" width="345" height="155" as="geometry" />
        </mxCell>
        <mxCell id="E_HUhhQDJXJuaxSUBeKh-70" value="&lt;h1 style=&quot;margin-top: 0px;&quot;&gt;API REST&lt;/h1&gt;&lt;p&gt;&lt;font style=&quot;font-size: 10px;&quot;&gt;Protocolo HTTP&lt;/font&gt;&lt;/p&gt;&lt;p&gt;&lt;font style=&quot;font-size: 10px;&quot;&gt;Cifrado de Canal HTTPS /TLS 1.3&lt;/font&gt;&lt;/p&gt;&lt;p&gt;&lt;font style=&quot;font-size: 10px;&quot;&gt;Cifrado de Mensaje con Certificado&lt;/font&gt;&lt;/p&gt;" style="text;html=1;whiteSpace=wrap;overflow=hidden;rounded=0;" vertex="1" parent="1">
          <mxGeometry x="-230" y="1770" width="260" height="140" as="geometry" />
        </mxCell>
        <mxCell id="E_HUhhQDJXJuaxSUBeKh-71" value="&lt;h1 style=&quot;margin-top: 0px;&quot;&gt;Controlador ODBC&lt;/h1&gt;&lt;p&gt;Permite conexion a la Base de datos&lt;/p&gt;" style="text;html=1;whiteSpace=wrap;overflow=hidden;rounded=0;" vertex="1" parent="1">
          <mxGeometry x="895" y="1745" width="180" height="155" as="geometry" />
        </mxCell>
        <mxCell id="E_HUhhQDJXJuaxSUBeKh-72" value="&lt;h1 style=&quot;margin-top: 0px;&quot;&gt;&lt;span style=&quot;background-color: transparent; color: light-dark(rgb(0, 0, 0), rgb(255, 255, 255));&quot;&gt;Cifrado en Reposo&lt;/span&gt;&lt;/h1&gt;&lt;h1 style=&quot;margin-top: 0px;&quot;&gt;&lt;span style=&quot;font-weight: 400;&quot;&gt;&lt;font style=&quot;font-size: 10px;&quot;&gt;Cifrar la Base de Datos en reposo con Algoritmos de cifrado como AES-256&lt;/font&gt;&lt;/span&gt;&lt;/h1&gt;" style="text;html=1;whiteSpace=wrap;overflow=hidden;rounded=0;" vertex="1" parent="1">
          <mxGeometry x="1010" y="1380" width="250" height="120" as="geometry" />
        </mxCell>
        <mxCell id="E_HUhhQDJXJuaxSUBeKh-73" value="&lt;h1 style=&quot;margin-top: 0px;&quot;&gt;&lt;span style=&quot;background-color: transparent; color: light-dark(rgb(0, 0, 0), rgb(255, 255, 255));&quot;&gt;Dominio de Datos&lt;/span&gt;&lt;/h1&gt;&lt;h1 style=&quot;margin-top: 0px;&quot;&gt;&lt;span style=&quot;font-weight: 400;&quot;&gt;&lt;font style=&quot;font-size: 10px;&quot;&gt;Dominos de Datos de acuerdo al Negocio, segmentados por metodologia DAMA&lt;/font&gt;&lt;/span&gt;&lt;/h1&gt;" style="text;html=1;whiteSpace=wrap;overflow=hidden;rounded=0;" vertex="1" parent="1">
          <mxGeometry x="785" y="1380" width="250" height="120" as="geometry" />
        </mxCell>
        <mxCell id="E_HUhhQDJXJuaxSUBeKh-74" value="&lt;h1 style=&quot;margin-top: 0px;&quot;&gt;&lt;span style=&quot;background-color: transparent; color: light-dark(rgb(0, 0, 0), rgb(255, 255, 255));&quot;&gt;Respaldos&lt;/span&gt;&lt;/h1&gt;&lt;h1 style=&quot;margin-top: 0px;&quot;&gt;&lt;span style=&quot;font-size: 10px; font-weight: 400;&quot;&gt;Resplados de la Base de datos&amp;nbsp; cada cierto periodo para temas de contingencia&lt;/span&gt;&lt;/h1&gt;" style="text;html=1;whiteSpace=wrap;overflow=hidden;rounded=0;" vertex="1" parent="1">
          <mxGeometry x="1270" y="1390" width="250" height="120" as="geometry" />
        </mxCell>
        <mxCell id="E_HUhhQDJXJuaxSUBeKh-81" value="Cuentas" style="rounded=1;whiteSpace=wrap;html=1;" vertex="1" parent="1">
          <mxGeometry x="1260" y="1045" width="80" height="15" as="geometry" />
        </mxCell>
        <mxCell id="E_HUhhQDJXJuaxSUBeKh-82" value="Movimientos" style="rounded=1;whiteSpace=wrap;html=1;" vertex="1" parent="1">
          <mxGeometry x="1270" y="1067.5" width="80" height="17.5" as="geometry" />
        </mxCell>
        <mxCell id="E_HUhhQDJXJuaxSUBeKh-83" value="Cuentas Lectura" style="shape=cylinder3;whiteSpace=wrap;html=1;boundedLbl=1;backgroundOutline=1;size=15;" vertex="1" parent="1">
          <mxGeometry x="1210" y="1020" width="60" height="80" as="geometry" />
        </mxCell>
        <mxCell id="E_HUhhQDJXJuaxSUBeKh-84" value="" style="rounded=1;whiteSpace=wrap;html=1;" vertex="1" parent="1">
          <mxGeometry x="-160" y="2410" width="1100" height="640" as="geometry" />
        </mxCell>
        <mxCell id="E_HUhhQDJXJuaxSUBeKh-109" value="&lt;b&gt;&lt;font style=&quot;font-size: 18px;&quot;&gt;Diagrama C4 - Clases- Sistema de Banca por Internet&lt;/font&gt;&lt;/b&gt;" style="text;html=1;align=center;verticalAlign=middle;whiteSpace=wrap;rounded=0;" vertex="1" parent="1">
          <mxGeometry x="85" y="2450" width="680" height="30" as="geometry" />
        </mxCell>
        <mxCell id="E_HUhhQDJXJuaxSUBeKh-146" value="Movimiento-ahorro" style="swimlane;fontStyle=0;childLayout=stackLayout;horizontal=1;startSize=30;horizontalStack=0;resizeParent=1;resizeParentMax=0;resizeLast=0;collapsible=1;marginBottom=0;whiteSpace=wrap;html=1;" vertex="1" parent="1">
          <mxGeometry x="110" y="2720" width="170" height="120" as="geometry" />
        </mxCell>
        <mxCell id="E_HUhhQDJXJuaxSUBeKh-147" value="id-movimiento&lt;div&gt;numero-cuenta&lt;div&gt;tipo-cuenta&lt;/div&gt;&lt;div&gt;valor&lt;/div&gt;&lt;/div&gt;" style="text;strokeColor=none;fillColor=none;align=left;verticalAlign=middle;spacingLeft=4;spacingRight=4;overflow=hidden;points=[[0,0.5],[1,0.5]];portConstraint=eastwest;rotatable=0;whiteSpace=wrap;html=1;" vertex="1" parent="E_HUhhQDJXJuaxSUBeKh-146">
          <mxGeometry y="30" width="170" height="60" as="geometry" />
        </mxCell>
        <mxCell id="E_HUhhQDJXJuaxSUBeKh-149" value="Get&amp;nbsp; Movimiento-ahorro ()&lt;div&gt;Post Movimiento-ahorro ()&lt;/div&gt;" style="text;strokeColor=none;fillColor=none;align=left;verticalAlign=middle;spacingLeft=4;spacingRight=4;overflow=hidden;points=[[0,0.5],[1,0.5]];portConstraint=eastwest;rotatable=0;whiteSpace=wrap;html=1;" vertex="1" parent="E_HUhhQDJXJuaxSUBeKh-146">
          <mxGeometry y="90" width="170" height="30" as="geometry" />
        </mxCell>
        <mxCell id="E_HUhhQDJXJuaxSUBeKh-185" style="edgeStyle=orthogonalEdgeStyle;rounded=0;orthogonalLoop=1;jettySize=auto;html=1;" edge="1" parent="1" source="E_HUhhQDJXJuaxSUBeKh-150" target="E_HUhhQDJXJuaxSUBeKh-146">
          <mxGeometry relative="1" as="geometry" />
        </mxCell>
        <mxCell id="E_HUhhQDJXJuaxSUBeKh-150" value="Transferencias propias" style="swimlane;fontStyle=0;childLayout=stackLayout;horizontal=1;startSize=30;horizontalStack=0;resizeParent=1;resizeParentMax=0;resizeLast=0;collapsible=1;marginBottom=0;whiteSpace=wrap;html=1;" vertex="1" parent="1">
          <mxGeometry x="27" y="2500" width="140" height="170" as="geometry" />
        </mxCell>
        <mxCell id="E_HUhhQDJXJuaxSUBeKh-151" value="id-transferencia&lt;div&gt;numero-cuenta-origen&lt;div&gt;numero-cuenta-destino&lt;/div&gt;&lt;div&gt;tipo-cuenta&lt;/div&gt;&lt;div&gt;valor&lt;/div&gt;&lt;div&gt;fecha-hora&lt;/div&gt;&lt;/div&gt;" style="text;strokeColor=none;fillColor=none;align=left;verticalAlign=middle;spacingLeft=4;spacingRight=4;overflow=hidden;points=[[0,0.5],[1,0.5]];portConstraint=eastwest;rotatable=0;whiteSpace=wrap;html=1;" vertex="1" parent="E_HUhhQDJXJuaxSUBeKh-150">
          <mxGeometry y="30" width="140" height="110" as="geometry" />
        </mxCell>
        <mxCell id="E_HUhhQDJXJuaxSUBeKh-152" value="Post Debito ()&lt;br&gt;&lt;div&gt;Post credito ()&lt;/div&gt;" style="text;strokeColor=none;fillColor=none;align=left;verticalAlign=middle;spacingLeft=4;spacingRight=4;overflow=hidden;points=[[0,0.5],[1,0.5]];portConstraint=eastwest;rotatable=0;whiteSpace=wrap;html=1;" vertex="1" parent="E_HUhhQDJXJuaxSUBeKh-150">
          <mxGeometry y="140" width="140" height="30" as="geometry" />
        </mxCell>
        <mxCell id="E_HUhhQDJXJuaxSUBeKh-153" value="Movimiento-corriente" style="swimlane;fontStyle=0;childLayout=stackLayout;horizontal=1;startSize=30;horizontalStack=0;resizeParent=1;resizeParentMax=0;resizeLast=0;collapsible=1;marginBottom=0;whiteSpace=wrap;html=1;" vertex="1" parent="1">
          <mxGeometry x="445" y="2740" width="140" height="120" as="geometry" />
        </mxCell>
        <mxCell id="E_HUhhQDJXJuaxSUBeKh-154" value="id-movimeinto&lt;div&gt;numero-cuenta&lt;div&gt;tipo-cuenta&lt;/div&gt;&lt;div&gt;valor&lt;/div&gt;&lt;/div&gt;" style="text;strokeColor=none;fillColor=none;align=left;verticalAlign=middle;spacingLeft=4;spacingRight=4;overflow=hidden;points=[[0,0.5],[1,0.5]];portConstraint=eastwest;rotatable=0;whiteSpace=wrap;html=1;" vertex="1" parent="E_HUhhQDJXJuaxSUBeKh-153">
          <mxGeometry y="30" width="140" height="60" as="geometry" />
        </mxCell>
        <mxCell id="E_HUhhQDJXJuaxSUBeKh-155" value="Get&amp;nbsp; Movimiento-cc ()&lt;div&gt;Post Movimiento-cc ()&lt;/div&gt;" style="text;strokeColor=none;fillColor=none;align=left;verticalAlign=middle;spacingLeft=4;spacingRight=4;overflow=hidden;points=[[0,0.5],[1,0.5]];portConstraint=eastwest;rotatable=0;whiteSpace=wrap;html=1;" vertex="1" parent="E_HUhhQDJXJuaxSUBeKh-153">
          <mxGeometry y="90" width="140" height="30" as="geometry" />
        </mxCell>
        <mxCell id="E_HUhhQDJXJuaxSUBeKh-183" style="edgeStyle=orthogonalEdgeStyle;rounded=0;orthogonalLoop=1;jettySize=auto;html=1;" edge="1" parent="1" source="E_HUhhQDJXJuaxSUBeKh-159" target="E_HUhhQDJXJuaxSUBeKh-153">
          <mxGeometry relative="1" as="geometry" />
        </mxCell>
        <mxCell id="E_HUhhQDJXJuaxSUBeKh-159" value="Pagos" style="swimlane;fontStyle=0;childLayout=stackLayout;horizontal=1;startSize=30;horizontalStack=0;resizeParent=1;resizeParentMax=0;resizeLast=0;collapsible=1;marginBottom=0;whiteSpace=wrap;html=1;" vertex="1" parent="1">
          <mxGeometry x="500" y="2500" width="140" height="140" as="geometry" />
        </mxCell>
        <mxCell id="E_HUhhQDJXJuaxSUBeKh-160" value="numero-cuenta&lt;div&gt;&lt;span style=&quot;background-color: transparent; color: light-dark(rgb(0, 0, 0), rgb(255, 255, 255));&quot;&gt;tipo-cuenta&lt;/span&gt;&lt;/div&gt;&lt;div&gt;&lt;span style=&quot;background-color: transparent; color: light-dark(rgb(0, 0, 0), rgb(255, 255, 255));&quot;&gt;tipo-pago&lt;/span&gt;&lt;/div&gt;&lt;div&gt;valor&lt;/div&gt;&lt;div&gt;fecha-hora&lt;/div&gt;" style="text;strokeColor=none;fillColor=none;align=left;verticalAlign=middle;spacingLeft=4;spacingRight=4;overflow=hidden;points=[[0,0.5],[1,0.5]];portConstraint=eastwest;rotatable=0;whiteSpace=wrap;html=1;" vertex="1" parent="E_HUhhQDJXJuaxSUBeKh-159">
          <mxGeometry y="30" width="140" height="80" as="geometry" />
        </mxCell>
        <mxCell id="E_HUhhQDJXJuaxSUBeKh-161" value="Post Debito ()&lt;br&gt;&lt;div&gt;Post credito ()&lt;/div&gt;" style="text;strokeColor=none;fillColor=none;align=left;verticalAlign=middle;spacingLeft=4;spacingRight=4;overflow=hidden;points=[[0,0.5],[1,0.5]];portConstraint=eastwest;rotatable=0;whiteSpace=wrap;html=1;" vertex="1" parent="E_HUhhQDJXJuaxSUBeKh-159">
          <mxGeometry y="110" width="140" height="30" as="geometry" />
        </mxCell>
        <mxCell id="E_HUhhQDJXJuaxSUBeKh-162" value="Notificaciones" style="swimlane;fontStyle=0;childLayout=stackLayout;horizontal=1;startSize=30;horizontalStack=0;resizeParent=1;resizeParentMax=0;resizeLast=0;collapsible=1;marginBottom=0;whiteSpace=wrap;html=1;" vertex="1" parent="1">
          <mxGeometry x="517.5" y="2883" width="140" height="120" as="geometry" />
        </mxCell>
        <mxCell id="E_HUhhQDJXJuaxSUBeKh-163" value="id-notificacion&lt;div&gt;emisor&lt;/div&gt;&lt;div&gt;mensaje&lt;/div&gt;&lt;div&gt;fecha-hora&lt;/div&gt;" style="text;strokeColor=none;fillColor=none;align=left;verticalAlign=middle;spacingLeft=4;spacingRight=4;overflow=hidden;points=[[0,0.5],[1,0.5]];portConstraint=eastwest;rotatable=0;whiteSpace=wrap;html=1;" vertex="1" parent="E_HUhhQDJXJuaxSUBeKh-162">
          <mxGeometry y="30" width="140" height="60" as="geometry" />
        </mxCell>
        <mxCell id="E_HUhhQDJXJuaxSUBeKh-164" value="&lt;br&gt;&lt;div&gt;Post Notificacion ()&lt;/div&gt;" style="text;strokeColor=none;fillColor=none;align=left;verticalAlign=middle;spacingLeft=4;spacingRight=4;overflow=hidden;points=[[0,0.5],[1,0.5]];portConstraint=eastwest;rotatable=0;whiteSpace=wrap;html=1;" vertex="1" parent="E_HUhhQDJXJuaxSUBeKh-162">
          <mxGeometry y="90" width="140" height="30" as="geometry" />
        </mxCell>
        <mxCell id="E_HUhhQDJXJuaxSUBeKh-165" value="Auditoria" style="swimlane;fontStyle=0;childLayout=stackLayout;horizontal=1;startSize=30;horizontalStack=0;resizeParent=1;resizeParentMax=0;resizeLast=0;collapsible=1;marginBottom=0;whiteSpace=wrap;html=1;" vertex="1" parent="1">
          <mxGeometry x="140" y="2890" width="140" height="120" as="geometry" />
        </mxCell>
        <mxCell id="E_HUhhQDJXJuaxSUBeKh-166" value="id-registro&lt;div&gt;tipo-movimiento&lt;/div&gt;&lt;div&gt;valor&lt;/div&gt;&lt;div&gt;fecha-hora&lt;/div&gt;" style="text;strokeColor=none;fillColor=none;align=left;verticalAlign=middle;spacingLeft=4;spacingRight=4;overflow=hidden;points=[[0,0.5],[1,0.5]];portConstraint=eastwest;rotatable=0;whiteSpace=wrap;html=1;" vertex="1" parent="E_HUhhQDJXJuaxSUBeKh-165">
          <mxGeometry y="30" width="140" height="60" as="geometry" />
        </mxCell>
        <mxCell id="E_HUhhQDJXJuaxSUBeKh-167" value="Post&amp;nbsp; auditoria()" style="text;strokeColor=none;fillColor=none;align=left;verticalAlign=middle;spacingLeft=4;spacingRight=4;overflow=hidden;points=[[0,0.5],[1,0.5]];portConstraint=eastwest;rotatable=0;whiteSpace=wrap;html=1;" vertex="1" parent="E_HUhhQDJXJuaxSUBeKh-165">
          <mxGeometry y="90" width="140" height="30" as="geometry" />
        </mxCell>
        <mxCell id="E_HUhhQDJXJuaxSUBeKh-184" style="edgeStyle=orthogonalEdgeStyle;rounded=0;orthogonalLoop=1;jettySize=auto;html=1;entryX=0.75;entryY=0;entryDx=0;entryDy=0;" edge="1" parent="1" source="E_HUhhQDJXJuaxSUBeKh-168" target="E_HUhhQDJXJuaxSUBeKh-146">
          <mxGeometry relative="1" as="geometry" />
        </mxCell>
        <mxCell id="E_HUhhQDJXJuaxSUBeKh-186" style="edgeStyle=orthogonalEdgeStyle;rounded=0;orthogonalLoop=1;jettySize=auto;html=1;entryX=0.25;entryY=0;entryDx=0;entryDy=0;" edge="1" parent="1" source="E_HUhhQDJXJuaxSUBeKh-168" target="E_HUhhQDJXJuaxSUBeKh-153">
          <mxGeometry relative="1" as="geometry" />
        </mxCell>
        <mxCell id="E_HUhhQDJXJuaxSUBeKh-168" value="Transferencias terceros" style="swimlane;fontStyle=0;childLayout=stackLayout;horizontal=1;startSize=30;horizontalStack=0;resizeParent=1;resizeParentMax=0;resizeLast=0;collapsible=1;marginBottom=0;whiteSpace=wrap;html=1;" vertex="1" parent="1">
          <mxGeometry x="245" y="2500" width="140" height="170" as="geometry" />
        </mxCell>
        <mxCell id="E_HUhhQDJXJuaxSUBeKh-169" value="id-transferencia&lt;div&gt;numero-cuenta-origen&lt;div&gt;numero-cuenta-destino&lt;/div&gt;&lt;div&gt;tipo-cuenta&lt;/div&gt;&lt;div&gt;valor&lt;/div&gt;&lt;div&gt;fecha-hora&lt;/div&gt;&lt;/div&gt;" style="text;strokeColor=none;fillColor=none;align=left;verticalAlign=middle;spacingLeft=4;spacingRight=4;overflow=hidden;points=[[0,0.5],[1,0.5]];portConstraint=eastwest;rotatable=0;whiteSpace=wrap;html=1;" vertex="1" parent="E_HUhhQDJXJuaxSUBeKh-168">
          <mxGeometry y="30" width="140" height="110" as="geometry" />
        </mxCell>
        <mxCell id="E_HUhhQDJXJuaxSUBeKh-170" value="Post Debito ()&lt;br&gt;&lt;div&gt;Post credito ()&lt;/div&gt;" style="text;strokeColor=none;fillColor=none;align=left;verticalAlign=middle;spacingLeft=4;spacingRight=4;overflow=hidden;points=[[0,0.5],[1,0.5]];portConstraint=eastwest;rotatable=0;whiteSpace=wrap;html=1;" vertex="1" parent="E_HUhhQDJXJuaxSUBeKh-168">
          <mxGeometry y="140" width="140" height="30" as="geometry" />
        </mxCell>
        <mxCell id="E_HUhhQDJXJuaxSUBeKh-178" style="edgeStyle=orthogonalEdgeStyle;rounded=0;orthogonalLoop=1;jettySize=auto;html=1;entryX=0.562;entryY=0.027;entryDx=0;entryDy=0;entryPerimeter=0;" edge="1" parent="1" source="E_HUhhQDJXJuaxSUBeKh-153" target="E_HUhhQDJXJuaxSUBeKh-165">
          <mxGeometry relative="1" as="geometry">
            <Array as="points">
              <mxPoint x="515" y="2870" />
              <mxPoint x="219" y="2870" />
            </Array>
          </mxGeometry>
        </mxCell>
        <mxCell id="E_HUhhQDJXJuaxSUBeKh-179" style="edgeStyle=orthogonalEdgeStyle;rounded=0;orthogonalLoop=1;jettySize=auto;html=1;entryX=0.817;entryY=0.07;entryDx=0;entryDy=0;entryPerimeter=0;" edge="1" parent="1" source="E_HUhhQDJXJuaxSUBeKh-146" target="E_HUhhQDJXJuaxSUBeKh-162">
          <mxGeometry relative="1" as="geometry">
            <Array as="points">
              <mxPoint x="195" y="2850" />
              <mxPoint x="632" y="2850" />
            </Array>
          </mxGeometry>
        </mxCell>
      </root>
    </mxGraphModel>
  </diagram>
</mxfile>
